<svg xmlns="http://www.w3.org/2000/svg" style="display: none;">
    <symbol id="ai" viewBox="0 0 512 512">
        <title>ai</title>
        <path style="fill:#FED400;" d="m504.5 248.404c-4.142 0-7.5 3.358-7.5 7.5v115.671h-381.27c-4.142 0-7.5 3.358-7.5 7.5s3.358 7.5 7.5 7.5h381.27v22.468c0 3.59-2.928 6.512-6.526 6.512h-468.948c-3.599 0-6.526-2.921-6.526-6.512v-22.468h66.084c4.142 0 7.5-3.358 7.5-7.5s-3.358-7.5-7.5-7.5h-66.084v-274.147c0-3.59 2.928-6.512 6.526-6.512h20.364c4.142 0 7.5-3.358 7.5-7.5s-3.358-7.5-7.5-7.5h-20.364c-11.869 0-21.526 9.65-21.526 21.512v311.614c0 11.862 9.657 21.512 21.526 21.512h43.005v37.782c-8.73 3.091-15 11.418-15 21.181 0 12.387 10.093 22.464 22.5 22.464s22.5-10.078 22.5-22.464c0-9.762-6.27-18.09-15-21.181v-37.782h127.579l-11.596 36.479h-19.531c-12.397 0-22.484 10.086-22.484 22.484s10.088 22.483 22.485 22.483h95.863c4.142 0 7.5-3.358 7.5-7.5s-3.358-7.5-7.5-7.5h-95.863c-4.126 0-7.484-3.357-7.484-7.484s3.357-7.484 7.484-7.484h160.032c4.126 0 7.484 3.357 7.484 7.484s-3.357 7.484-7.484 7.484h-28.959c-4.142 0-7.5 3.358-7.5 7.5s3.358 7.5 7.5 7.5h28.959c12.397 0 22.484-10.086 22.484-22.484s-10.086-22.484-22.484-22.484h-19.531l-11.596-36.479h127.579v37.782c-8.73 3.091-15 11.418-15 21.181 0 12.387 10.093 22.464 22.5 22.464s22.5-10.078 22.5-22.464c0-9.762-6.27-18.09-15-21.181v-37.782h43.005c11.87 0 21.526-9.65 21.526-21.512v-153.137c.001-4.143-3.357-7.5-7.499-7.5zm-432.469 248.577c-4.136 0-7.5-3.349-7.5-7.464s3.364-7.464 7.5-7.464 7.5 3.348 7.5 7.464-3.364 7.464-7.5 7.464zm139.223-29.949 11.596-36.479h66.301l11.596 36.479zm228.715 29.949c-4.136 0-7.5-3.349-7.5-7.464s3.364-7.464 7.5-7.464 7.5 3.348 7.5 7.464-3.364 7.464-7.5 7.464z" />
        <path style="fill:#FED400;" d="m490.474 75.916h-20.803c-4.142 0-7.5 3.358-7.5 7.5s3.358 7.5 7.5 7.5h20.803c3.599 0 6.526 2.921 6.526 6.512v123.821c0 4.142 3.358 7.5 7.5 7.5s7.5-3.358 7.5-7.5v-123.821c0-11.862-9.657-21.512-21.526-21.512z" />
        <path style="fill:#FED400;" d="m285.847 90.916h123.365c4.142 0 7.5-3.358 7.5-7.5s-3.358-7.5-7.5-7.5h-54.183v-32.271c8.73-3.091 15-11.418 15-21.181 0-12.387-10.093-22.464-22.5-22.464s-22.5 10.078-22.5 22.464c0 9.762 6.27 18.09 15 21.181v32.271h-54.183c-4.142 0-7.5 3.358-7.5 7.5s3.359 7.5 7.501 7.5zm61.682-75.916c4.136 0 7.5 3.349 7.5 7.464s-3.364 7.464-7.5 7.464-7.5-3.348-7.5-7.464 3.365-7.464 7.5-7.464z" />
        <path style="fill:#FED400;" d="m101.841 90.916h124.381c4.142 0 7.5-3.358 7.5-7.5s-3.358-7.5-7.5-7.5h-54.69v-32.271c8.73-3.091 15-11.418 15-21.181 0-12.387-10.093-22.464-22.5-22.464s-22.5 10.078-22.5 22.464c0 9.762 6.27 18.09 15 21.181v32.271h-54.69c-4.142 0-7.5 3.358-7.5 7.5s3.357 7.5 7.499 7.5zm62.19-75.916c4.136 0 7.5 3.349 7.5 7.464s-3.364 7.464-7.5 7.464-7.5-3.348-7.5-7.464 3.365-7.464 7.5-7.464z" />
        <path style="fill:#FED400;" d="m256 147.222c12.407 0 22.5-10.078 22.5-22.464 0-9.762-6.27-18.09-15-21.181v-96.077c0-4.142-3.358-7.5-7.5-7.5s-7.5 3.358-7.5 7.5v96.077c-8.73 3.091-15 11.418-15 21.181 0 12.387 10.093 22.464 22.5 22.464zm0-29.928c4.136 0 7.5 3.348 7.5 7.464s-3.364 7.464-7.5 7.464-7.5-3.349-7.5-7.464c0-4.116 3.364-7.464 7.5-7.464z" />
        <path style="fill:#FED400;" d="m64.531 32.283v71.805c-8.73 3.091-15 11.418-15 21.181 0 12.387 10.093 22.464 22.5 22.464s22.5-10.078 22.5-22.464c0-9.762-6.27-18.09-15-21.181v-74.538c0-1.765-.623-3.473-1.757-4.824l-18.524-22.05c-2.665-3.172-7.396-3.583-10.567-.918s-3.583 7.396-.918 10.567zm7.5 85.521c4.136 0 7.5 3.348 7.5 7.464s-3.364 7.464-7.5 7.464-7.5-3.349-7.5-7.464 3.365-7.464 7.5-7.464z" />
        <path style="fill:#FED400;" d="m439.969 147.222c12.407 0 22.5-10.078 22.5-22.464 0-9.762-6.27-18.09-15-21.181v-71.295l16.767-19.958c2.664-3.171 2.253-7.902-.918-10.567-3.172-2.664-7.902-2.254-10.567.918l-18.524 22.05c-1.135 1.351-1.757 3.06-1.757 4.824v74.027c-8.73 3.091-15 11.418-15 21.181-.001 12.388 10.092 22.465 22.499 22.465zm0-29.928c4.136 0 7.5 3.348 7.5 7.464s-3.364 7.464-7.5 7.464-7.5-3.349-7.5-7.464c0-4.116 3.364-7.464 7.5-7.464z" />
        <path style="fill:#FED400;" d="m252.509 301.098c4.142 0 7.5-3.358 7.5-7.5v-102.687c0-4.142-3.358-7.5-7.5-7.5h-44.009c-4.142 0-7.5 3.358-7.5 7.5v102.688c0 4.142 3.358 7.5 7.5 7.5s7.5-3.358 7.5-7.5v-43.844h29.009v43.844c0 4.141 3.358 7.499 7.5 7.499zm-36.509-66.343v-36.344h29.009v36.344z" />
        <path style="fill:#FED400;" d="m289.018 190.911v102.688c0 4.142 3.358 7.5 7.5 7.5s7.5-3.358 7.5-7.5v-102.688c0-4.142-3.358-7.5-7.5-7.5s-7.5 3.358-7.5 7.5z" />
    </symbol>
    <symbol id="mech-arm" viewBox="0 0 512 512">
        <title>mech-arm</title>
        <path style="fill:#FED400;" d="m497 422h-196v-107c0-63.411-51.589-115-115-115-5.157 0-10.234.347-15.213 1.008l-28.449-61.008h198.662v55c0 8.284 6.716 15 15 15h15v45c0 8.284 6.716 15 15 15h15v65c0 8.284 6.716 15 15 15s15-6.716 15-15v-65h15c8.284 0 15-6.716 15-15v-45h15c8.284 0 15-6.716 15-15v-160c0-19.299-15.701-35-35-35h-80c-17.601 0-32.203 13.062-34.637 30h-285.363c-30.327 0-55 24.673-55 55 0 8.306 1.861 16.183 5.172 23.25l-.01.003 74.696 160.185c-6.332 14.243-9.858 29.997-9.858 46.562v107h-56c-8.284 0-15 6.716-15 15v60c0 8.284 6.716 15 15 15h482c8.284 0 15-6.716 15-15v-60c0-8.284-6.716-15-15-15zm-66-182h-30v-30h30zm-60-205c0-2.757 2.243-5 5-5h80c2.757 0 5 2.243 5 5v25h-25c-8.284 0-15 6.716-15 15s6.716 15 15 15h25v30h-25c-8.284 0-15 6.716-15 15s6.716 15 15 15h25v30h-90zm-185 195c46.869 0 85 38.131 85 85v107h-170v-107c0-46.869 38.131-85 85-85zm155-170v50h-212.651s-23.083-49.412-23.384-50zm-310 25c0-13.785 11.215-25 25-25s25 11.215 25 25-11.215 25-25 25-25-11.215-25-25zm23.045 54.95c.65.023 1.3.05 1.955.05 17.594 0 33.273-8.314 43.347-21.208l42.064 90.206c-15.919 6.721-30.015 16.932-41.337 29.662zm427.955 342.05h-452v-30h452z" />
        <path style="fill:#FED400;" d="m186 370c30.327 0 55-24.673 55-55s-24.673-55-55-55-55 24.673-55 55 24.673 55 55 55zm0-80c13.785 0 25 11.215 25 25s-11.215 25-25 25-25-11.215-25-25 11.215-25 25-25z" />
    </symbol>
    <symbol id="convey-belt" viewBox="0 0 512 512">
        <title>convey-belt</title>
        <g>
            <path style="fill:#FED400;" d="m358.222 75.75h-21.475c-2.056-4.345-4.45-8.499-7.17-12.441l10.731-18.587c3.529-6.112 1.435-13.927-4.677-17.455l-44.263-25.555c-2.935-1.695-6.424-2.153-9.696-1.277-3.273.878-6.064 3.019-7.758 5.954l-10.714 18.557c-4.835-.411-9.565-.411-14.4 0l-10.714-18.557c-1.695-2.935-4.486-5.076-7.758-5.954-3.272-.876-6.761-.418-9.696 1.277l-44.263 25.556c-6.112 3.528-8.206 11.343-4.677 17.455l10.731 18.588c-2.72 3.941-5.114 8.096-7.17 12.44h-21.475c-7.057 0-12.778 5.721-12.778 12.778v51.111c0 7.057 5.721 12.778 12.778 12.778h21.475c2.056 4.343 4.45 8.498 7.17 12.439l-10.731 18.588c-3.529 6.112-1.435 13.927 4.677 17.455l44.263 25.556c2.934 1.695 6.422 2.152 9.696 1.277 3.273-.878 6.064-3.019 7.758-5.954l10.714-18.559c4.835.413 9.565.413 14.4 0l10.714 18.557c1.695 2.935 4.486 5.076 7.758 5.954 1.088.291 2.2.435 3.308.435 2.224 0 4.43-.581 6.389-1.712l44.263-25.556c6.112-3.528 8.206-11.343 4.677-17.455l-10.731-18.587c2.72-3.941 5.114-8.095 7.17-12.44h21.475c7.057 0 12.778-5.721 12.778-12.778v-12.778-25.556-12.776c-.001-7.057-5.722-12.778-12.779-12.778zm-102.222 75.833c-20.679 0-37.5-16.821-37.5-37.5s16.821-37.5 37.5-37.5 37.5 16.821 37.5 37.5-16.821 37.5-37.5 37.5z" />
            <path style="fill:#FED400;" d="m80 161.905v-32.823h31v-30h-46c-8.284 0-15 6.716-15 15v47.823c-11.629 2.734-22.304 8.634-30.962 17.293-12.277 12.276-19.038 28.599-19.038 45.961s6.761 33.686 19.038 45.962c5.857 5.857 15.355 5.857 21.213 0s5.858-15.355 0-21.213c-13.646-13.646-13.646-35.852 0-49.498 6.611-6.61 15.4-10.251 24.749-10.251s18.138 3.641 24.749 10.251c13.646 13.646 13.646 35.852 0 49.498-5.858 5.857-5.858 15.355 0 21.213 2.929 2.929 6.768 4.394 10.606 4.394s7.678-1.465 10.606-4.394c12.277-12.276 19.038-28.6 19.038-45.962s-6.761-33.686-19.038-45.962c-8.657-8.658-19.332-14.558-30.961-17.292z" />
            <path style="fill:#FED400;" d="m492.962 179.197c-8.658-8.659-19.333-14.558-30.962-17.293v-47.823c0-8.284-6.716-15-15-15h-46v30h31v32.823c-11.629 2.734-22.304 8.634-30.962 17.293-12.277 12.277-19.038 28.6-19.038 45.962s6.761 33.686 19.038 45.962c5.857 5.857 15.355 5.857 21.213 0s5.858-15.355 0-21.213c-13.646-13.646-13.646-35.852 0-49.498 6.611-6.61 15.4-10.251 24.749-10.251s18.138 3.641 24.749 10.251c13.646 13.646 13.646 35.852 0 49.498-5.858 5.857-5.858 15.355 0 21.213 2.929 2.929 6.768 4.394 10.606 4.394s7.678-1.465 10.606-4.394c12.277-12.276 19.038-28.6 19.038-45.962s-6.76-33.685-19.037-45.962z" />
        </g>
        <circle style="fill:#FED400;" cx="41" cy="472" r="40" />
        <circle style="fill:#FED400;" cx="256" cy="472" r="40" />
        <path style="fill:#FED400;" d="m313.396 432c7.932 11.348 12.604 25.135 12.604 40s-4.672 28.652-12.604 40h100.208c-7.932-11.348-12.604-25.135-12.604-40s4.672-28.652 12.604-40z" />
        <path style="fill:#FED400;" d="m98.396 432c7.932 11.348 12.604 25.135 12.604 40s-4.672 28.652-12.604 40h100.208c-7.932-11.348-12.604-25.135-12.604-40s4.672-28.652 12.604-40z" />
        <circle style="fill:#FED400;" cx="471" cy="472" r="40" />
        <path style="fill:#FED400;" d="m293.5 312h-75c-8.284 0-15 6.716-15 15v75h105v-75c0-8.284-6.716-15-15-15z" />
        <path style="fill:#FED400;" d="m143.5 312h-75c-8.284 0-15 6.716-15 15v75h105v-75c0-8.284-6.716-15-15-15z" />
        <path style="fill:#FED400;" d="m368.5 312c-8.284 0-15 6.716-15 15v75h105v-75c0-8.284-6.716-15-15-15z" />
    </symbol>

    <symbol id="ai-head" viewBox="0 0 512.012 512.012" >
        <title>ai-head</title> 
    <g>
        <path style="fill:#FED400;" d="m59.998 332.666v87.346h61v92h210v-62.218c0-56.303 12.309-115.303 37.563-179.782h32.224l25.611 25.611c-2.817 5.875-4.398 12.451-4.398 19.39 0 24.813 20.187 45 45 45s45-20.187 45-45-20.187-45-45-45c-6.938 0-13.514 1.581-19.389 4.398l-34.398-34.398h-32.572c3.497-9.779 6.115-19.796 7.843-30.01h36.096c6.192 17.469 22.865 30.01 42.42 30.01 24.813 0 45-20.187 45-45s-20.187-45-45-45c-19.555 0-36.228 12.541-42.42 30h-33.58c0-10.152-.845-20.177-2.485-30h24.698l34.398-34.397c5.875 2.817 12.45 4.398 19.389 4.398 24.813 0 45-20.187 45-45s-20.187-45-45-45-45 20.187-45 45c0 6.939 1.581 13.514 4.398 19.389l-25.611 25.61h-19.994c-24.022-68.126-88.986-119.066-167.616-120-88.723-1.043-163.221 61.684-179.498 143.168-5.685 28.455-4.837 56.601 2.51 83.77l-36.173 62.25zm407-32.654c8.271 0 15 6.729 15 15s-6.729 15-15 15-15-6.729-15-15 6.728-15 15-15zm0-120c8.271 0 15 6.729 15 15s-6.729 15-15 15-15-6.729-15-15 6.728-15 15-15zm0-120c8.271 0 15 6.729 15 15s-6.729 15-15 15-15-6.729-15-15 6.728-15 15-15zm-117.798 178.089c-.272.639-.533 1.273-.802 1.911h-92.44c6.565-8.725 11.274-18.921 13.531-30.01h88.481c-1.971 9.61-4.896 18.996-8.77 28.099zm-108.202-43.089c0 24.813-20.187 45-45 45s-45-20.187-45-45 20.187-45 45-45 45 20.187 45 45zm120-15h-91.509c-2.258-11.079-6.967-21.275-13.532-30h101.998c1.993 9.704 3.043 19.738 3.043 30zm-297.903-30.954c13.953-69.845 76.913-119.906 149.725-119.047 60.427.717 112.514 37.715 135.55 90.001h-152.372c-41.355 0-75 33.645-75 75s33.645 75 75 74.99h140.455c-23.819 63.823-35.455 122.919-35.455 179.792v32.218h-150v-92h-61v-72.655l-50.417-36.534 29.076-50.038c-.795-4.156-14.724-35.852-5.562-81.727z" />
        <path style="fill:#FED400;" d="m180.998 180.012h30v30h-30z" />
    </g>


    </symbol>

</svg>