<?xml version="1.0" encoding="UTF-8" standalone="no"?> <svg id="Layer_1" data-name="Layer 1" xmlns="http://www.w3.org/2000/svg" viewBox="0 0 128 128"><defs><style>.cls-1{fill:#2d3e50;}</style></defs><title>a</title><path class="cls-1" d="M70.7436.967A47.73249,47.73249,0,0,0,22.2021,48.72053c0,.23278,0,1.57568.009,3.67966a9.79962,9.79962,0,0,1-2.73958,3.75113c-.47452.47452-1.25329,1.21766-2.11271,2.04124-3.062,2.95443-4.23472,4.10041-4.72705,4.70017a10.90314,10.90314,0,0,0-2.01436,3.5542c-.67145,2.05916-.68938,4.99568,3.05279,7.32336a28.6388,28.6388,0,0,0,3.07968,1.62038c.77.35813,1.54891.69834,2.32779,1.02958l.09847.04481c1.23548,8.16486,3.19607,21.03884,3.31256,21.86253a11.60466,11.60466,0,0,0,3.41092,7.50226c3.3036,3.01716,7.71722,2.90067,10.94913,2.80231.49233-.009.98478-.02688,1.44137-.02688h3.89451c.1342,1.8442.28644,4.19876.42075,6.27585.17,2.55139.3401,5.13884.48348,7.16216a5.36313,5.36313,0,0,0,5.34474,4.99557,5.20255,5.20255,0,0,0,1.0474-.10743l51.54075-10.2508a7.26914,7.26914,0,0,0,5.83718-7.09954v-9.3646A81.98353,81.98353,0,0,1,113.833,67.62874,47.77486,47.77486,0,0,0,70.7436.967Zm16.9027,49.83065a4.57744,4.57744,0,0,1-2.51565,2.12179c-.47452.1612-13.7604,3.53638-13.7604,3.53638l6.24011,16.67877a4.57753,4.57753,0,1,1-7.73515,4.89721L52.77559,51.03936a4.5766,4.5766,0,0,1,2.77531-6.89353c.34917-.08961,13.51855-2.99028,13.51855-2.99028L62.66825,24.047a4.5799,4.5799,0,0,1,7.73515-4.90606L87.503,46.14226a4.53384,4.53384,0,0,1,.7073,2.44407A4.61489,4.61489,0,0,1,87.64631,50.79762Z"/></svg>