<?xml version="1.0" encoding="UTF-8"?>
<svg width="550.17" height="449.09" enable-background="new 0 0 550.17 449.093" viewBox="0 0 550.17 449.093" xmlns="http://www.w3.org/2000/svg">
 <path d="m403.54,100.21c0-.476-.848-.86-1.895-.86s-1.896.385-1.896.86 .849.859 1.896.859 1.9-.39 1.9-.86" fill="none" stroke="#000" stroke-linecap="round" stroke-width=".7056"/>
 <path d="m401.02,99.053c-6.536.947-12.972,2.562-14.588,5.493-2.557,4.642-3.599,8.431-3.409,17.714m18-23.207c5.684-.285 14.208,2.273 17.334,4.168 3.126,1.894 4.926,2.367 4.547,4.83s-.189,7.104.758,8.051" fill="none" stroke="#000" stroke-linecap="round" stroke-width="1.1304"/>
 <path d="m420.72,107.48c-3.126-1.989-9.567-5.873-7.862-1.137s3.979,5.21 4.547,5.115m-34.39,10.8c1.042.473 7.293,1.988 21.218.947c4.83-.568 18.376-1.895 19.418-7.105" fill="none" stroke="#000" stroke-linecap="round" stroke-width=".7056"/>
 <path d="m383.21,121.41-10.42,6.157s-1.61,1.61 1.8,2.937 9.662,2.273 14.871.853 13.167-4.357 15.63-8.241" fill="none" stroke="#000" stroke-linecap="round" stroke-width="1.1304"/>
 <path d="m412.76,124.34c.474-.758.853-1.611 2.558-.285s2.652,3.789 1.989,4.736-1.421,2.558-1.8,1.231 .095-2.937-.947-2.273m1.52-6.54c2.842,1.232 3.789,4.357 3.6,6.252s-.663,3.789-.568,4.168-1.895,3.126-3.6,2.273" fill="none" stroke="#000" stroke-linecap="round" stroke-width=".7056"/>
 <path d="m423.66,116.67c1.137-.19 1.61-.19 1.8,2.179s.095,6.914.189,7.672 .663,2.842 1.137,3.505m-.39-1.6c1.704-.568 4.356-.568 1.704.853s-7.482,7.389-11.082,12.503c-3.6,5.115-7.089,8.877-10.12,11.719m22.25-25.55c1.704,1.137 5.493,3.221 3.978,5.494" fill="none" stroke="#000" stroke-linecap="round" stroke-width="1.1304"/>
 <path d="m389.63,136.81c1.103,1.604 2.306,3.408 4.21,3.308s2.939-.634 2.605-2.306c-.5-2.5-8.41-3.41-6.81-1m6.82,1 13.831-15.033-13.631,15.735" fill="none" stroke="#000" stroke-linecap="round" stroke-width=".7056"/>
 <path d="m389.63,136.81c-1.488-1.028-6.548-2.188-5.704-1.134s3.162,4.216 5.902,4.427m.53-2.11c-.105,1.475-.316,5.164.105,6.324s1.687,1.896 2.846,1.264 1.37-1.158 1.792-1.58 3.267-1.16 2.635-2.529" fill="none" stroke="#000" stroke-linecap="round" stroke-width="1.1304"/>
 <path d="m398.26,143.48c1.055.422 1.477,2.318 2.214,2.529s2.846,1.055 2.951,1.582c.105.526.949,2.74 1.37,2.635" fill="none" stroke="#000" stroke-linecap="round" stroke-width=".7056"/>
 <path d="m394.78,144.95 .316,2.003 1.37.843s-.316,1.37.316,1.897 2.107.738 2.107.738 0,1.686 1.581,2.424 3.268,1.055 6.43.633" fill="none" stroke="#000" stroke-linecap="round" stroke-width="1.1304"/>
 <path d="m396.47,147.8 2.74-.95 .11,1.16-1.06,1.26" fill="none" stroke="#000" stroke-linecap="round" stroke-width=".7056"/>
 <path d="m384.77,132.73s.409,2.239 2.636,3.162" fill="none" stroke="#000" stroke-linecap="round" stroke-width="1.1304"/>
 <path d="m368,140.1c-2.5-2.592-5.678.846-6.311,3.586s.422,4.638 1.687,4.006" fill="none" stroke="#000" stroke-linecap="round" stroke-width=".7056"/>
 <path d="m365.87,139.36c4.26,2.407 10.094,5 12.223,5.556s11.112,2.593 14.26,5c-2.87,6.853-7.407,13.519-5.093,16.297s2.963.093 5.556,2.222m-.01,0c3.056,2.037 5.093,6.111 5.464,10.927m-36.11-32.97c3.889,2.037 6.296,4.26 10.37,9.445s9.445,8.518 14.26,9.074m5.56-14.99 6.884,1.789m-31.57-12.09c-3.803-2.491-4.59-2.622-4.787-3.672s-3.082-5.312-6.426-2.099m7.28,3.35c0-1.967.919-4.064-.196-5.441s-2.164-2.755-4.787-2.23m2.89.39c-.132-1.901.918-3.017-1.64-4.591s-4.394-3.606-4.853-4.459-1.771-2.492-5.181-2.033-4.656,1.246-5.246,1.377-2.886.395-3.935.328c-1.05-.064-1.902.328-1.64,1.509s.524,1.705 2.427,1.573 4.327-.655 5.442,0 1.967,1.968 1.705,2.82-.918,2.229-1.64,2.295m2.83-1.31c-.066,1.377-1.378,2.163-2.82,1.311s-3.082-1.574-4.656-1.574-3.344.459-3.409,1.837c-.066,1.377.918,2.099 2.623,2.295s2.426.196 3.606,1.837 3.804,6.885 6.754,6.754c3.279,2.557 8.46,9.967 10.952,8.066" fill="none" stroke="#000" stroke-linecap="round" stroke-width="1.1304"/>
 <path d="m354.41,136.41s-1.574,2.099-1.574,3.017m-11.85-22.11c1.146.245 2.308-.649 2.596-1.997s-.405-2.64-1.55-2.885" fill="none" stroke="#000" stroke-linecap="round" stroke-width=".7056"/>
 <path d="m342.04,112.44c-1.145-.245-2.307.648-2.596,1.997s.405,2.64 1.55,2.885" fill="none" stroke="#000" stroke-linecap="round" stroke-width="1.6992"/>
 <path d="m343.09,113.67c-.26-.484-.775-.301-1.23-.397l.355-1.661c.605.129 1.049,1.017 1.395,1.659l-.53.4"/>
 <path d="m341.17,116.49c.377.082.976.381 1.285.143l.311.576c-.63.484-1.185,1.107-1.952.943l.35-1.66"/>
 <path d="m342.87,127.18c.273-.348.452-.753.536-1.157 .214-.996-.109-1.961-.767-2.506m-2.4.03c-.507.391-.843.973-.977,1.597-.211.985.103,1.94.746,2.488m-.73-5.01c-1.032.019-1.932.886-2.184,2.037-.289,1.348.405,2.641 1.55,2.885m-.24,1.12c.218.047.436.064.631.057m.05-7.22c-1.423.152-2.598,1.383-2.943,2.955-.421,1.966.591,3.85 2.261,4.207m.24-1.13 1.095.24m1.25-22.09c1.146.245 2.308-.649 2.596-1.997s-.405-2.64-1.55-2.885" fill="none" stroke="#000" stroke-linecap="round" stroke-width=".7056"/>
 <path d="m342.04,100.81c-1.145-.245-2.307.648-2.596,1.997s.405,2.64 1.55,2.885" fill="none" stroke="#000" stroke-linecap="round" stroke-width="1.6992"/>
 <path d="m343.09,102.04c-.26-.484-.775-.301-1.23-.398l.355-1.661c.605.13 1.049,1.017 1.395,1.66l-.53.4"/>
 <path d="m341.17,104.86c.377.081.976.38 1.285.142l.311.577c-.63.484-1.185,1.107-1.952.943l.35-1.66"/>
 <path d="m333.65,117.41c1.146.245 2.307-.649 2.596-1.997s-.405-2.64-1.55-2.885" fill="none" stroke="#000" stroke-linecap="round" stroke-width=".7056"/>
 <path d="m334.7,112.53c-1.145-.246-2.307.648-2.596,1.997s.405,2.64 1.55,2.885" fill="none" stroke="#000" stroke-linecap="round" stroke-width="1.6992"/>
 <path d="m335.75,113.76c-.26-.484-.775-.301-1.23-.398l.355-1.661c.605.13 1.049,1.017 1.395,1.66l-.53.4"/>
 <path d="m333.83,116.58c.377.081.976.38 1.285.142l.311.577c-.63.484-1.185,1.107-1.952.943l.35-1.66"/>
 <path d="m333.65,105.78c1.146.246 2.307-.648 2.596-1.996s-.405-2.641-1.55-2.885" fill="none" stroke="#000" stroke-linecap="round" stroke-width=".7056"/>
 <path d="m334.7,100.9c-1.145-.246-2.307.648-2.596,1.996s.405,2.641 1.55,2.885" fill="none" stroke="#000" stroke-linecap="round" stroke-width="1.6992"/>
 <path d="m335.75,102.12c-.26-.484-.775-.301-1.23-.398l.355-1.661c.605.13 1.049,1.017 1.395,1.659l-.53.4"/>
 <path d="m333.83,104.95c.377.08.976.38 1.285.141l.311.577c-.63.484-1.185,1.108-1.952.943l.35-1.66"/>
 <path d="m371.46,116.71c2.536.543 5.111-1.438 5.751-4.425s-.898-5.849-3.435-6.393" fill="none" stroke="#000" stroke-linecap="round" stroke-width="1.6992"/>
 <path d="m373.78,105.89c-2.536-.543-5.111,1.438-5.751,4.425s.898,5.85 3.435,6.393" fill="none" stroke="#000" stroke-linecap="round" stroke-width=".7056"/>
 <path d="m373.6,106.72c-1.073-.23-2.373-.332-3.254.346l-.31-.576c1.2-.924 2.456-1.744 3.919-1.432l-.36,1.66"/>
 <path d="m368.81,114.23c.628,1.168 1.727,1.412 2.827,1.648l-.355,1.661c-1.251-.268-2.276-1.583-2.99-2.911l.52-.4"/>
 <path d="m374.48,106.2-.109-.024" fill="none" stroke="#000" stroke-linecap="round" stroke-width="1.6992"/>
 <path d="m374.37,106.18c-1.333-.286-2.677.126-3.748,1.019m-.69.68c-.673.8-1.114,1.756-1.316,2.723-.546,2.553.497,5.015 2.425,6.029" fill="none" stroke="#000" stroke-linecap="round" stroke-width=".7056"/>
 <path d="m374.19,107.01c-1.073-.23-2.373-.332-3.254.346l-.31-.576c1.2-.924 2.456-1.744 3.92-1.432l-.36,1.66"/>
 <path d="m406.9 153.49 3.33 6.697s13.058-29.668 22.893-26.751" fill="none" stroke="#000" stroke-linecap="round" stroke-width=".7056"/>
 <path d="m433.13,133.44c6.634,3.272 9.479,8.608 12.325,11.454s7.114,5.336 8.894,17.075 1.067,30.237.355,37.708-5.336,16.363-2.846,18.854 4.269,11.027-2.49,13.874" fill="none" stroke="#000" stroke-linecap="round" stroke-width="1.1304"/>
 <path d="m449.36,232.4-4.98,1.423m-22.56,3.22s-11.235.696-14.792,1.052c-3.558.355-9.249,1.423-9.249-.355" fill="none" stroke="#000" stroke-linecap="round" stroke-width=".7056"/>
 <path d="m397.78 237.74c-4.27-10.673-5.692-23.479-4.27-33.795s2.135-19.921 7.826-32.728m-3.56 66.53 1.066 7.114" fill="none" stroke="#000" stroke-linecap="round" stroke-width="1.1304"/>
 <path d="m398.85 244.85s16.532-1.828 21.594-1.828m-17.48 6.45s-4.141 7.822 9.204 9.203" fill="none" stroke="#000" stroke-linecap="round" stroke-width=".7056"/>
 <path d="m398.85,244.85c-2.795,10.596-5.096,28.543-4.636,32.684s-5.521,40.035-5.981,45.557-3.682,13.805-2.762,17.946 3.682,9.204 4.142,11.965-.46,23.468-1.38,28.99-.921,21.628.46,26.229-4.602,9.663-3.222,12.425" fill="none" stroke="#000" stroke-linecap="round" stroke-width="1.1304"/>
 <path d="m386.85,422.95c3.682,1.84 6.902,4.141 10.584,5.981s6.902,3.222 11.044,3.222 10.584,1.841 12.425-.921" fill="none" stroke="#000" stroke-linecap="round" stroke-width=".7056"/>
 <path d="m420.9,431.23c.92-8.743-.461-7.822.46-11.964s.92-8.743.46-11.504-2.761-11.505-.92-23.009 1.38-25.309 1.84-31.291-1.84-8.743-.92-11.964 2.761-5.982 5.062-14.266 1.841-16.105 4.603-21.167 5.981-11.965 5.981-16.566m-13.33,120.1c5.522,0 11.504,0 13.345-2.762s.921-4.602-.46-9.663 4.588-45.754 1.841-62.583c-3.682-22.548 1.841-43.255 2.301-48.777m-.01,0c5.062-9.663 9.663-14.265 10.583-24.389s1.451-12.386-.46-20.707l-1.91-8.321" fill="none" stroke="#000" stroke-linecap="round" stroke-width="1.1304"/>
 <path d="m450.56,237.59-.2-.085-10.584,3.682m-1.85,11.05c.461-.46 5.982,2.761 9.664-.46m-36.35,48.77c-2.301,4.602-1.841,17.486-5.982,25.77s-1.38,21.167-1.38,21.167m.92,30.83c0,1.381 0,27.61-.46,30.831s3.682,16.566 2.761,18.407m10.97-174.28c2.124,1.487 8.495,4.248 10.194,4.46s.85,1.699 0,3.398-1.486,3.61-1.486,4.673 .637,4.035.849,4.247-.637,6.159-1.273,7.434c-.638,1.274-2.762,1.912-2.124,3.823s.425,2.336.212,2.974 .85,1.273 1.274,1.273 5.31,2.124 4.035,3.823 0,2.974-3.186,2.124-6.584,4.46-12.955-.425m3.41,2.35c.85,1.274-1.062,4.248-3.186,2.124s-2.761-4.035-4.247-4.885-3.61-3.61-3.61-5.734 .637-4.248.637-5.31-.425-4.46.637-7.009 1.912-1.911 2.549-4.46 1.486-3.61 2.549-4.673 2.549-9.557 4.248-11.469m-3.19,17.63s11.257,2.337 6.584,2.974m-3.82-8.28s10.194,6.584 11.256,3.823m22.05-65.42c-5.49-1.764-8.038-.393-12.743-.588-4.705-.196-6.666-.98-10.391-1.373-3.725-.392-15.684,5.098-3.137,6.862s7.842.784 8.038.784m-13.53-3.13c.588-18.037-2.745-21.957-3.137-28.035s-2.549-7.057-1.961-9.605m4.12-9.22c4.313-3.137 12.743-4.9 16.271-4.9s10.587,6.665 12.547,9.802m1.37,8.63s.784,28.035 2.549,30.779m-20.58-1.37c.588,2.353 2.353,4.313 2.353,7.058s-3.921,17.056-6.078,22.35-3.986,20.159-7.09,22.528m30.42-50.18c.392,2.352 3.333,4.313 1.176,10.782s-6.077,19.604-9.018,24.31-11.24,16.337-12.384,19.539" fill="none" stroke="#000" stroke-linecap="round" stroke-width=".7056"/>
 <path d="m386.85,422.95c-4.468,3.771-9.783,6.429-12.441,7.758s-10.188,1.772-9.745,6.202 2.215,7.974 7.974,8.417 20.377,0 24.807-2.658 7.088-4.43 7.975-3.101 11.96,2.657 14.618,0 .866-8.336.866-8.336m.19-6.57c6.202,3.986 7.003,5.548 12.229,5.162 3.951-.292 4.324-3.161 4.43-6.202 .169-4.87-1.288-15.877-1.288-15.877" fill="none" stroke="#000" stroke-linecap="round" stroke-width="1.1304"/>
 <path d="m385.47,420.65s-.263,2.004.459,2.932m-17.93,18.96c8.862,1.545 18.651,1.957 31.635-3.4m7.21-2.89c5.151,1.134 14.632,1.03 14.528-1.442m15.64-11.15c-1.001,1.819-5.366,3.184-9.914-.091m-113.73-386.65c-1.819,0-3.295,1.826-3.295,4.077s1.476,4.077 3.295,4.077 3.296-1.825 3.296-4.077-1.48-4.077-3.3-4.077m0-6.359c-4.658,0-8.436,4.673-8.436,10.437s3.777,10.437 8.436,10.437 8.436-4.672 8.436-10.437-3.78-10.437-8.44-10.437m-2.92-.382c-4.659,0-8.437,4.673-8.437,10.437s3.777,10.436 8.437,10.436m0-20.873 2.93.382m-2.93,20.49 2.93.383m-.01-32.89c-10.022,0-18.148,10.053-18.148,22.453s8.126,22.454 18.148,22.454 18.149-10.053 18.149-22.454-8.12-22.453-18.15-22.453m0,2.318c-8.988,0-16.274,9.015-16.274,20.135s7.286,20.136 16.274,20.136 16.275-9.016 16.275-20.136-7.29-20.135-16.28-20.135m-4.09,39.622c.186.008.37.012.527.011 8.988,0 16.275-9.015 16.275-20.135 0-9.32-5.119-17.162-12.183-19.487m-.54-5.696c-11.525,0-20.87,11.561-20.87,25.82s9.345,25.821 20.87,25.821 20.871-11.561 20.871-25.821c.01-14.26-9.34-25.82-20.87-25.82m21.87,28.45c.072-.922.106-1.838.103-2.63 0-14.95-9.757-27.081-21.83-27.179" fill="none" stroke="#000" stroke-linecap="round" stroke-width=".7056"/>
 <path d="m209.82 14.986c-8.354 3.042-12.319 13.22-8.856 22.732s13.044 14.76 21.398 11.719" fill="none" stroke="#000" stroke-linecap="round" stroke-width="1.6992"/>
 <path d="m222.36 49.438c8.354-3.041 12.319-13.219 8.856-22.732s-13.043-14.76-21.398-11.719" fill="none" stroke="#000" stroke-linecap="round" stroke-width=".7056"/>
 <path d="m222.07,48.639c3.983-1.449 7.331-4.377 8.859-8.3l.583.319c-1.677,4.304-4.489,7.986-8.86,9.578l-.58-1.597"/>
 <path d="m222.23,16.447c-4.098-2.244-8.325-2.044-12.122-.662l-.582-1.597c3.946-1.437 8.686-.692 12.944,1.64l-.24.619"/>
 <path d="m209.82,14.986c-8.354,3.042-12.319,13.22-8.856,22.732s13.044,14.76 21.398,11.719 12.319-13.219 8.856-22.732-13.05-14.76-21.4-11.719m.81,2.22c-7.278,2.649-10.732,11.517-7.715,19.804s11.363,12.857 18.641,10.209 10.732-11.517 7.715-19.805c-3.03-8.287-11.38-12.857-18.65-10.208m2.9,7.985c-3.405,1.239-5.021,5.388-3.61,9.266s5.316,6.016 8.722,4.775c3.405-1.238 5.021-5.388 3.61-9.265s-5.31-6.016-8.72-4.776m1.03,22.489c1.467-.025 2.859-.297 4.051-.746 7.278-2.65 10.732-11.517 7.715-19.804-2.056-5.647-6.585-9.567-11.647-10.67m-4.08,8.446c-3.405,1.24-5.021,5.389-3.61,9.266 1.055,2.897 3.502,4.824 6.139,5.098m.06-14.685c-.933-.091-1.822.033-2.586.321m5.53-.037-2.944-.285m2.88,14.971-2.944-.285m100.44-24.092-98.685-1.049m-5.45-.211c-6.821,2.482-10.887,9.445-10.724,17.26m16.06-18.172c-1.933-.016-3.767.318-5.339.912m104.1-.1-98.764-.813m-15.05,18.334 4.524,195.56m131.01-183.27-12.717,176.47m-119.01-206.06c-6.821,2.483-10.887,9.445-10.724,17.261m16.06-18.172c-1.933-.017-3.767.318-5.339.911m-10.73,17.261 4.884,193.83m11.19-212 6.846-.266m87.28,2.205c-10.796,1.247-18.9,12.459-18.93,25.709 0,14.068 9.096,25.51 20.433,25.814m-.01.001 8.456.223m-169.76-27.385c2.137-.08 3.685-5.039 3.458-11.076s-2.146-10.865-4.283-10.784-3.685,5.04-3.457,11.076c.22,6.037 2.14,10.865 4.28,10.784m113.52-3.834-18.233-1.453m-46.99-3.747-23.196-1.85m-24.45,14.227c3.833-.145 6.697-6.745 6.395-14.742s-3.655-14.362-7.489-14.218c-3.834.146-6.697,6.745-6.395,14.742s3.65,14.363 7.49,14.218m1.38-9.684c.938-.036 1.617-2.212 1.517-4.859s-.941-4.767-1.879-4.731-1.617,2.211-1.517,4.859c.11,2.648.95,4.766 1.88,4.731m-1.31-8.665-3.834-4.477m4.48,3.643-3.415-5.33m2.96,13.795-3.4,5.139m4.11-4.225-2.958,5.872m7.79-22.51-.011,6.833m-.02,11.949-.011,6.689m.04-25.471c.007-3.252-.589-3.97-1.008-3.97-1.363,0-1.519,2.682-1.59,4.174m109.04,33.68-17.655-1.2m-7.89-.537-5.453-.37m-33.85-2.303-22.823-1.553m-7.63-.518-3.81-.26m99.11,1.76-17.566-1.194m-7.91-.538-.868-.059m-38.7-2.632-22.732-1.546m-7.42-.505-3.939-.268m99.4-9.98-17.855-1.498m-47.11-3.956-23.689-2.048m-7.71-.665-3.27-.282m99.66,3.935-17.789-1.537m-7.98-.689-2.103-.182m-37.1-3.205-23.87-2.063m-7.52-.65-3.425-.296m100.08,22.765-18.24-1.454m-46.98-3.746-23.484-1.873m-.59,14.832-6.422-.436m-5.18-.353-7.423-.504m50.72-28.027-7.849-.699m-24.65-1.971-6.299-.544m-4.53-.391-7.107-.613m8,4.567 .392,26.55m-.39-26.55c.007-3.252-.589-3.97-1.009-3.97l-.053.001m5.61,4.368 .918,25.316m-.92-25.316c.007-3.252-.589-3.971-1.009-3.971-.854,0-1.234,1.054-1.417,2.208m8.82,2.331 .868,25.417m-.87-25.417c.007-3.237-.583-3.964-1.003-3.97m-16.97,27.877c.028,1.31-.085,2.889-1.171,2.79s-1.506-1.062-1.407-3.629m9.99,1.309c.028,1.309-.084,2.887-1.17,2.789l-.027-.004m4.46-11.872c.493-.019.829-1.722.75-3.805s-.542-3.756-1.035-3.737m.29,7.542-3.407-.271m3.12-7.271-3.233-.241m1.86-5.176 .132,5.324m.19,7.527 .137,5.559m.88-22.976c.667.099.938,4.616 0,4.69m.86,18.379c.666.099.905,4.931-.033,5.005m1.32-1.09c.028,1.309-.084,2.888-1.17,2.789-.771-.07-1.206-.576-1.358-1.78m8.87-.581c.028,1.31-.084,2.888-1.17,2.79l-.008-.002m32.98,1.536c3.211,2.333 6.789,3.367 10.153,3.211m0-.001 7.676-.322m-26.75-27.234c.369-.197.634-1.197.642-2.346 .006-1.18-.262-2.16-.624-2.354m1.39,2.203c-.014-2.606-.684-4.665-1.51-4.673-.561-.002-1.057.941-1.336,2.373m1.31,27.507c.43.002.785-1.093.792-2.445s-.336-2.45-.767-2.453m65.1,12.088c.912.004 1.664-2.314 1.679-5.181v-.169m-3.13,2.551c.284,1.766.849,2.783 1.451,2.799m-64.99-19.951c.237.002.432-.6.436-1.344s-.185-1.349-.422-1.35c-.048,0-.094.023-.134.066m-.04,2.546c.05.057.101.084.147.082m-1.67-10.091-.038,7.337m-.01,2.548-.041,7.917m3.17-20.159 .117,22.599m-1.68,5.349 2.148.022m63.02-20.01c.354-.189.609-1.149.617-2.252 .006-1.133-.251-2.075-.599-2.262m1.45,1.908c-.013-2.503-.656-4.48-1.45-4.487-.539-.003-1.015.903-1.283,2.278m-24.48,24.698c.294.002.539-1.066.545-2.386s-.226-2.391-.521-2.392m7.08-5.683c.462.003.843-1.172.851-2.623s-.361-2.63-.823-2.633m17.12-4.291-.037,7.059m-.01,2.547-.038,7.271m3.05-19.36 .112,21.703m-1.25-9.451c.228,0 .415-.578.418-1.292s-.177-1.295-.405-1.296c-.046,0-.09.023-.129.064m-.02,2.444c.047.055.097.08.142.08m-18.97-.222-5.658-.458m5.69-4.798-5.402-.548m5.11,10.561 .07-4.772m.07-5.255 .059-4.021m-.2,14.048-5.681-.412m5.86-14.061-5.458-.409m-40.99,20.691c.913.006 1.664-2.314 1.679-5.18v-.17m-3.13,2.552c.283,1.765.849,2.783 1.45,2.798m65.15,1.613c.414.003.754-1.049.761-2.348s-.323-2.354-.737-2.355m-18.72,4.613c.634.003 1.156-1.607 1.166-3.597s-.495-3.607-1.128-3.61m-.04,7.207-7.024-.413m0-.001c.633.004 1.156-1.607 1.166-3.598s-.495-3.605-1.129-3.609m-.04,7.207s-.489-.082-.716-1.176m1.07-22.416c.125-.471.192-1.138.196-1.813 .007-1.318-.227-2.39-.521-2.392m7.03-.801-7.337-.482m7.3,7.689c.634.003 1.156-1.607 1.166-3.598s-.495-3.606-1.128-3.609m-6.34,5.992c.282-.708.433-1.743.439-2.796 .011-1.99-.495-3.606-1.128-3.609m-.16-.07c-.667-.056-.965.315-1.251,1.12m41.64,31.762c.49-1.028.756-2.727.75-4.466m-.17-21.694c-.01-1.869-.37-3.445-.892-4.138m.89,4.136 .112,21.703m-4.63-28.322-7.485-.385m-4.13,2.526v-5.02h3.743l13.243-2.688m-16.98,2.688 13.243-2.688m3.45,15.792s6.122,2.111 7.397,2.826c1.27.712 1.624,2.063 1.624,5.9m-6.8,14.637 5.949,1.535s1.92.959-.576,3.838m-8.73-6.18s-1.255.039-1.447,5.221m.58,7.678 8.637.383s7.293-1.535 7.293-14.586m-.76-36.467 .191,9.021 1.536,2.879m-11.71-10.557v4.414m-1.16,2.496s7.294.768 7.294.575 2.303-.768 2.879,3.646m-12.78,7.045c2.477.707 5.696,1.797 5.876,3.128 .375,2.769-1.58,3.328-5.994,3.712m-16.44,8.154c.75,4.229 4.407,6.941 4.878,2.695m-61.08-22.572 4.487,196.06m60.12-27.07c-9.603,1.382-17.377,9.342-19.967,19.476-3.366,13.503 3.511,26.846 15.361,29.799s24.186-5.599 27.552-19.103c2.999-12.033-2.136-23.938-11.799-28.532m-11.15-3.01c-10.151,1.426-18.387,9.83-21.124,20.543-3.549,14.236 3.702,28.303 16.195,31.417s25.498-5.902 29.047-20.139c3.216-12.901-2.437-25.661-12.942-30.31m-13.6,34.1c-1.106-.276-2.257.522-2.572,1.782s.328,2.507 1.434,2.782 2.257-.522 2.572-1.783-.33-2.51-1.43-2.78m-5.98-10.46c-1.106-.275-2.258.522-2.572,1.783s.328,2.506 1.434,2.781 2.258-.522 2.572-1.783c.32-1.26-.32-2.51-1.43-2.78m5.23-11.95c-1.106-.275-2.258.523-2.572,1.783s.328,2.506 1.434,2.782 2.258-.522 2.572-1.783c.32-1.26-.32-2.51-1.43-2.78m16.8,9.34c-1.105-.276-2.257.522-2.571,1.783s.327,2.506 1.435,2.782 2.258-.523 2.571-1.783c.32-1.26-.32-2.51-1.43-2.78m-5.47,2.86c-1.106-.276-2.258.522-2.572,1.783s.328,2.506 1.434,2.781 2.257-.522 2.572-1.782c.32-1.26-.33-2.51-1.43-2.78m.25,8.59c-1.106-.275-2.258.523-2.572,1.783s.328,2.507 1.434,2.782 2.258-.522 2.572-1.783c.32-1.26-.33-2.51-1.43-2.78m-8.33-11.97c-1.26.608-2.151,1.815-2.501,3.197-.584,2.345.528,4.664 2.517,5.345m.02.36 .046-31.277m4.06-.09 .125,31.993m-4.23-.62 4.232.623l6.487-.49m-.01-.05 .37-31.822m-3.04,26.22c-1.106-.276-2.258.522-2.572,1.783s.328,2.506 1.434,2.781 2.257-.522 2.572-1.782c.32-1.26-.33-2.51-1.43-2.78m-.38-9.69c-.612-.153-1.249.288-1.422.985s.181,1.387.793,1.539 1.249-.289 1.422-.986-.18-1.39-.79-1.54m.08-5.06c-.611-.152-1.248.289-1.422.986s.181,1.386.793,1.538 1.249-.289 1.423-.986c.18-.7-.18-1.39-.79-1.54m0-5.35c-.612-.152-1.25.289-1.423.986s.182,1.386.793,1.538 1.249-.289 1.423-.986-.18-1.39-.79-1.54m.04-5.07c-.612-.152-1.249.289-1.422.986s.181,1.387.793,1.539 1.249-.289 1.422-.986-.18-1.38-.79-1.54m-44.63,26.51c-1.106-.275-2.257.523-2.572,1.783s.328,2.507 1.434,2.782 2.258-.522 2.572-1.783c.32-1.26-.33-2.5-1.43-2.78" fill="none" stroke="#000" stroke-linecap="round" stroke-width=".7056"/>
 <path d="m309.86,225.19 5.65-.41" fill="none" stroke="#000" stroke-linecap="round" stroke-width="1.1304"/>
 <path d="m221.98 231.52-1.09-92.09" fill="none" stroke="#000" stroke-linecap="round" stroke-width=".7056"/>
 <path d="m229.57,230.97-.368-31.085m-.25-21.95-.464-39.246m-6.51,92.84-3.822-.839l-.057-33.688" fill="none" stroke="#000" stroke-linecap="round" stroke-width="1.1304"/>
 <path d="m222.96,200.24-.21-21.82" fill="none" stroke="#000" stroke-linecap="round" stroke-width=".7056"/>
 <path d="m222.75,178.42-1.4-.19" fill="none" stroke="#000" stroke-linecap="round" stroke-width="1.1304"/>
 <path d="m221.35,178.23 96.4-3.767m-94.79,25.78-1.481-.292m1.48.29 94.205-5.36l.588-20.422" fill="none" stroke="#000" stroke-linecap="round" stroke-width="1.6992"/>
 <path d="m228.48,138.69-23.562-.732m13.18,59.03-.424-58.622m-12.76-.42 .718,70.698m43.56-9.44c-7.665,4.265-12.654,12.37-13.869,21.19m.17,8.92c1.738,9.898 8.333,17.023 16.658,19.162" fill="none" stroke="#000" stroke-linecap="round" stroke-width="1.1304"/>
 <path d="m218.12,208.4c-6.543,1.223-11.628,6.509-13.322,13.128-2.313,9.28 2.733,18.529 11.271,20.658s17.336-3.67 19.649-12.95c1.815-7.283-.902-14.547-6.382-18.429m-26.26,15.5c.102,9.556 6.936,17.048 15.672,17.534m-21.07-18.71c.07,6.622 3.375,12.255 8.356,15.29m53.47,10.77c4.057.719 8.1.247 11.696-1.139m-61.14-7.62 49.445,8.758m.1-1.05-42.626-7.759m-10.96-1.96s2.326,1.577 4.038,2.011m35.93,3.4-21.693-3.948m-6.18-31.06c-5.51,1.16-9.742,5.658-11.17,11.239-1.991,7.987 2.353,15.946 9.701,17.778s14.919-3.157 16.911-11.145c1.411-5.659-.359-11.305-4.192-14.824m83.46,4.83c-.981-.245-2.003.464-2.281,1.582s.291,2.223 1.271,2.468c.981.244 2.003-.464 2.282-1.582 .29-1.12-.28-2.22-1.27-2.47" fill="none" stroke="#000" stroke-linecap="round" stroke-width=".7056"/>
 <path d="m315.54,224.78-.024-29.803m-9.67,29.31-.049-28.759" fill="none" stroke="#000" stroke-linecap="round" stroke-width="1.1304"/>
 <path d="m305.38,204.3c-5.804,1.084-10.314,5.773-11.817,11.645-2.052,8.232 2.425,16.436 9.999,18.324s15.377-3.255 17.429-11.486c1.61-6.461-.8-12.904-5.661-16.348m-3.55,28.41c5.981-2.243 10.005-8.003 10.654-14.437m-16.61-18.2c-7.984-1.596-15.913,3.932-18.052,12.463-.105.425-.195.85-.259,1.218m.69,8.75c1.91,5.448 6.301,9.025 11.385,9.901m-4.92-1.81s2.063,1.398 3.582,1.783m7.14-28.04c-4.888,1.03-8.642,5.02-9.908,9.971-1.767,7.084 2.086,14.145 8.604,15.77s13.233-2.801 15-9.885c1.251-5.021-.318-10.028-3.719-13.149m-5.53,16.03-.023-28.592m24.37-153.07-12.72,176.47m-50.24,30.06 40.577-15.221m-40.58,14.14 40.577-15.221m-29.29,6.41 15.382-5.77" fill="none" stroke="#000" stroke-linecap="round" stroke-width=".7056"/>
 <path d="m309.82,225.18-4.07-.89" fill="none" stroke="#000" stroke-linecap="round" stroke-width="1.1304"/>
 <path d="m308.68,234.78-10.44-.29" fill="none" stroke="#000" stroke-linecap="round" stroke-width=".7056"/>
 <path d="m274.45,174.78-.581-37.229m-44.97,36.18 21.935-.857m23.57-.92 17.995-.049" fill="none" stroke="#000" stroke-linecap="round" stroke-width="1.1304"/>
 <path d="m268.93,175.94-.59-37.22" fill="none" stroke="#000" stroke-linecap="round" stroke-width=".7056"/>
 <path d="m250.89,176.82-.44-28.21" fill="none" stroke="#000" stroke-linecap="round" stroke-width="1.1304"/>
 <path d="m250.6,150.35-6.69-.29" fill="none" stroke="#000" stroke-linecap="round" stroke-width=".7056"/>
 <path d="m277.36,171.29-.283-67.243m-6.7-42.702v41.011" fill="none" stroke="#000" stroke-linecap="round" stroke-width="1.1304"/>
 <path d="m270.38,102.36c0,5.817-2.036,20.651-2.036,23.269s1.454,6.398 6.689,10.18m-12.79-78.244 .291,60.207m.29,4.37s-.291,8.726 5.526,12.797" fill="none" stroke="#000" stroke-linecap="round" stroke-width=".7056"/>
 <path d="m257,54.948 .291,39.557s-.873,9.308-6.108,15.125m-2.03-6.11v21.232" fill="none" stroke="#000" stroke-linecap="round" stroke-width="1.1304"/>
 <path d="m249.15,124.75-6.4-.29" fill="none" stroke="#000" stroke-linecap="round" stroke-width=".7056"/>
 <path d="m228.48,138.69 .597-17.422m0-.01c.291-4.072 3.332-2.733 9.599-2.908 2.186-.061 6.731.059 10.48.183" fill="none" stroke="#000" stroke-linecap="round" stroke-width="1.1304"/>
 <path d="m240.4,173.11-.453-51.41m2.48,25.59-.227-20.609m8.25,21.93-.094-18.984m1.58,5.21 19.25,1.359" fill="none" stroke="#000" stroke-linecap="round" stroke-width=".7056"/>
 <path d="m292.48,137.56 23.779,1.132m-23.75,36.76-.023-37.894m14.2,31.74-10.113-.521m5.42.2v6.096m4.69-5.78-.103,5.603" fill="none" stroke="#000" stroke-linecap="round" stroke-width="1.1304"/>
 <path d="m296.57,168.77 .06,6.52" fill="none" stroke="#000" stroke-linecap="round" stroke-width=".7056"/>
 <path d="m316.59,174.61-.33-35.92" fill="none" stroke="#000" stroke-linecap="round" stroke-width="1.1304"/>
 <path d="m310.96 174.82v-36.49" fill="none" stroke="#000" stroke-linecap="round" stroke-width=".7056"/>
 <path d="m292.18,206.67-.14-10.36" fill="none" stroke="#000" stroke-linecap="round" stroke-width="1.1304"/>
 <path d="m295.75,203.9-.11-7.79" fill="none" stroke="#000" stroke-linecap="round" stroke-width=".7056"/>
 <path d="m302.17,201.94-.082-6.201m-80.11,35.78 7.592-.548m19.58-127.45 5.736.108m7.57.14 14.619.275" fill="none" stroke="#000" stroke-linecap="round" stroke-width="1.1304"/>
 <path d="m251.83,108.86 .04-5.29" fill="none" stroke="#000" stroke-linecap="round" stroke-width=".7056"/>
 <path d="m325.72,175.94 52.7-1.752m-52.48-1.31 53.341-1.958m-.86,3.26v-3.234m.86-.03 .238-8.718m.46-16.81 .37-13.54m.24-8.89 .753-27.523" fill="none" stroke="#000" stroke-linecap="round" stroke-width="1.1304"/>
 <path d="m381.34,95.432-49.733-1.243m-8.6-.216-3.568-.089m5.86-31.679-8.091,112.28" fill="none" stroke="#000" stroke-linecap="round" stroke-width=".7056"/>
 <path d="m294.49,137.75 .4-48.447m0-.004 28.391.862m8.6.261 48.696,1.479m-.01,0-.09,3.509" fill="none" stroke="#000" stroke-linecap="round" stroke-width="1.1304"/>
 <path d="m312.71,138.55 .601-49.648m5.53,54.628 .601-49.647m5.18,97.337 58.654-2.422" fill="none" stroke="#000" stroke-linecap="round" stroke-width=".7056"/>
 <path d="m383.27,188.79-26.067-2.715l-32.274.807" fill="none" stroke="#000" stroke-linecap="round" stroke-width="1.1304"/>
 <path d="m254.01 286.49v5.64" fill="none" stroke="#000" stroke-linecap="round" stroke-width="1.6992"/>
 <path d="m254.01 286.49-169.1 23.23" fill="none" stroke="#000" stroke-linecap="round" stroke-width=".7056"/>
 <path d="m254.01 292.13-169.1 23.22" fill="none" stroke="#000" stroke-linecap="round" stroke-width="1.1304"/>
 <path d="m222.55,301.39-8.297-3.803m8.3,3.8-.149,10.904m0,.01-137.42,20.76" fill="none" stroke="#000" stroke-linecap="round" stroke-width="1.6992"/>
 <path d="m222.55 301.39-137.42 20.77" fill="none" stroke="#000" stroke-linecap="round" stroke-width=".7056"/>
 <path d="m216.58 298.41-137.43 20.76" fill="none" stroke="#000" stroke-linecap="round" stroke-width="1.1304"/>
 <path d="m221.74,344.7-33.479-17.396l.656-9.847" fill="none" stroke="#000" stroke-linecap="round" stroke-width="1.6992"/>
 <path d="m221.74 344.7-198.57 36.43" fill="none" stroke="#000" stroke-linecap="round" stroke-width=".7056"/>
 <path d="m209.6 357.83-197.92 37.41m190.95-52.59-201.78 38.15" fill="none" stroke="#000" stroke-linecap="round" stroke-width="1.6992"/>
 <path d="m202.63,342.65-23.884-12.727m0,.01v7.549" fill="none" stroke="#000" stroke-linecap="round" stroke-width=".7056"/>
 <path d="m177.1 323.36-142.38 22.1m142.38-22.1v-4.222" fill="none" stroke="#000" stroke-linecap="round" stroke-width="1.1304"/>
 <path d="m178.75 329.93-133.26 20.67" fill="none" stroke="#000" stroke-linecap="round" stroke-width=".7056"/>
 <path d="m178.75 337.48-100.77 17.06m143.76-9.84-2.297 98.795" fill="none" stroke="#000" stroke-linecap="round" stroke-width="1.6992"/>
 <path d="m211.57 357.5-2.12 91.24" fill="none" stroke="#000" stroke-linecap="round" stroke-width=".7056"/>
 <path d="m206.32,359.14-1.456,62.589m-.21,9.2-.353,15.163" fill="none" stroke="#000" stroke-linecap="round" stroke-width="1.6992"/>
 <path d="m205 421.83-10.849-7.712m-5.25-3.74-11.133-7.914" fill="none" stroke="#000" stroke-linecap="round" stroke-width=".7056"/>
 <path d="m193.84 423.14 10.81 7.79" fill="none" stroke="#000" stroke-linecap="round" stroke-width="1.6992"/>
 <path d="m193.84,423.14 .329-9.519l-92.23,21.335" fill="none" stroke="#000" stroke-linecap="round" stroke-width=".7056"/>
 <path d="m193.84 423.14-92.23 21.334m85.67-34.13-92.23 21.335" fill="none" stroke="#000" stroke-linecap="round" stroke-width="1.6992"/>
 <path d="m178.75,337.48-.128,9.718m-.22,16.53-.646,48.82m-.19,14.36-.128,9.69" fill="none" stroke="#000" stroke-linecap="round" stroke-width=".7056"/>
 <path d="m185.97,398.85 .656-36.761m-.66,36.76 19.365,13.457m-32.5,1.31 .328-49.89m0-15.51v-10.057" fill="none" stroke="#000" stroke-linecap="round" stroke-width="1.6992"/>
 <path d="m330.2 275.86 64.691-9.031m57.08-7.97 54.816-7.652" fill="none" stroke="#000" stroke-linecap="round" stroke-width=".7056"/>
 <path d="m254.01 286.49-7.83-4.02" fill="none" stroke="#000" stroke-linecap="round" stroke-width="1.6992"/>
 <path d="m330.2 275.86v5.8" fill="none" stroke="#000" stroke-linecap="round" stroke-width=".7056"/>
 <path d="m330.2 281.66 64.095-8.813m56.92-7.83 43.514-5.982" fill="none" stroke="#000" stroke-linecap="round" stroke-width="1.6992"/>
 <path d="m330.2 275.86-28.37-9.38" fill="none" stroke="#000" stroke-linecap="round" stroke-width=".7056"/>
 <path d="m330.2 281.66-19.12-6.33" fill="none" stroke="#000" stroke-linecap="round" stroke-width="1.6992"/>
 <path d="m487.91,243.75-9.244,1.013m-16.66,1.83-9.368,1.026m-397.52,40.5 22.762-2.687m5.648-.67 26.64-3.145m6.73-.8 29.26-3.452m6.42-.76 23.136-2.73m6.78-.8 23.915-2.822m7.82-.92 20.366-2.403m8.1-.96 47.433-5.598m9.71-1.15 26.613-3.141m8.08-.95 14.645-1.728m8.31-.98 14.561-1.718m8.4-.99 14.476-1.708m56.49-6.66 16.862-1.99m8.8-1.04 20.638-2.436m-453.71,31.98 203.95-18.713m33.98-3.13 114.99-10.55m55.27-5.07 43.836-4.022c3.635-.279 4.473,8.386 1.678,9.504" fill="none" stroke="#000" stroke-linecap="round" stroke-width="1.1304"/>
 <path d="m55.565,283.72 343.07-38.026m52.4-6.02 18.603-2.141m6.23-.72 23.173-2.666m-448.69,39.15 347.46-35.368m51.63-5.56 48.249-5.192m-138.2,41.52-7.463,1.196m7.69-1.21 2.748,1.08-7.425,1.122m.01,0-16.665-5.87m13.65,4.87-.186-12.181m.01,0c.062-2.712-1.54-2.896-2.588-1.726m0,.01-2.726,3.895m0-.06-.038,7.529m-1.37-.09-.335-11.541c.019-.809-.191-1.376-.491-1.728m-1.79.21-1.611,3.626m0-.01-.04,7.879m11.08-2.23c1.482-.568 2.397-2.913 2.234-5.518-.196-3.001-1.76-5.342-3.492-5.229-1.649.107-2.857,2.4-2.8,5.229m2.54,1.87c.502-.033.863-.765.807-1.634s-.511-1.548-1.013-1.516-.862.765-.806,1.635c.05.88.5,1.55 1.01,1.52m2.05,4.91c2.096-.137 3.602-3.19 3.364-6.819s-2.129-6.461-4.224-6.324c-1.048.068-1.948.866-2.558,2.101m2.92,11.01c.177.029.351.036.502.024m3.99-.46c1.867-.572 3.062-3.467 2.855-6.727-.228-3.481-1.977-6.229-3.98-6.326m-2.86,13.53c1.5.14 3.269.049 4.175-.586m-6.08-12.28c1.903-.861 4.125-.907 5.168-.544m3.99,17.36 .414-11.838m.01,0c.042-1.847-.688-2.521-1.488-2.395m-13.79,6.38c1.314-.503 2.126-2.581 1.98-4.89-.053-.809-.218-1.563-.456-2.193m-4.99.59c-.101.538-.141,1.093-.127,1.604m2.25,1.66c.444-.028.765-.677.714-1.448s-.452-1.371-.896-1.342c-.445.029-.765.677-.715,1.447 .06.77.46,1.37.91,1.34m1.81,4.35c.44-.028.852-.203 1.198-.479m1.72-6.21c-.08-.616-.213-1.194-.376-1.685m-2.98,8.36c.157.025.312.032.445.021c.388.036.795.055 1.198.05m12.97,6.7-7.384-2.726m-13.73-.95 2.477-.248m41.54,1.16-7.463,1.196m7.69-1.2 2.748,1.079-7.425,1.122m-.01,0-16.665-5.87m13.66,4.87-.186-12.181c.062-2.712-1.54-2.896-2.588-1.726l-2.727,3.895m.01-.04-.038,7.529m-1.38-.1-.335-11.541m.01,0c.018-.769-.171-1.318-.447-1.673m-1.83.15-1.611,3.625l-.04,7.879m11.08-2.24c1.482-.568 2.398-2.913 2.235-5.518-.196-3.001-1.76-5.342-3.492-5.229-1.649.107-2.857,2.4-2.8,5.229m2.52,1.88c.502-.033.863-.765.806-1.634s-.51-1.548-1.012-1.515-.862.764-.806,1.634c.06.86.51,1.54 1.01,1.51m2.05,4.9c2.096-.138 3.603-3.19 3.365-6.82s-2.128-6.461-4.224-6.324c-1.048.068-1.948.866-2.558,2.101m2.92,11.02c.177.028.352.036.502.024m3.99-.47c1.868-.572 3.063-3.467 2.856-6.726-.228-3.481-1.977-6.229-3.979-6.326m-2.87,13.53c1.501.139 3.269.048 4.176-.587m-6.08-12.28c1.904-.861 4.126-.906 5.168-.544m4,17.37 .414-11.839c.042-1.847-.688-2.521-1.488-2.394m-13.79,6.37c1.313-.504 2.125-2.582 1.98-4.891-.051-.784-.208-1.519-.434-2.134m-5.03.59c-.092.519-.129,1.051-.115,1.541m2.25,1.66c.445-.028.766-.677.715-1.447s-.452-1.372-.896-1.343c-.445.029-.765.677-.715,1.448 .07.77.47,1.37.91,1.34m1.82,4.35c.44-.029.852-.203 1.198-.48m1.72-6.21c-.077-.593-.203-1.15-.356-1.624m-3.01,8.29c.156.025.311.032.444.022m.01,0c.388.035.795.055 1.198.049m12.97,6.69-7.384-2.726m-13.73-.94 2.477-.248m31.57,1.41-11.144-3.926m13.28-8.73c-.437-1.304-1.595-1.218-2.414-.302l-2.727,3.895m0-.04-.039,7.528m-1.37-.1-.334-11.541c.016-.726-.15-1.256-.402-1.611m-1.88.09-1.611,3.626l-.04,7.878m11.45-12.35c-.537-.478-1.104-.681-1.632-.64-1.65.107-2.858,2.401-2.8,5.229m2.53,1.87c.502-.033.862-.765.806-1.634s-.51-1.548-1.012-1.515-.863.764-.806,1.634c.05.88.51,1.55 1.01,1.52m-1.3-6.27-.07.139m3.33-2.41c.153-.031.306-.058.456-.08m-7.97,9.63c1.313-.504 2.125-2.582 1.98-4.89-.05-.762-.198-1.475-.413-2.075m-5.06.59c-.085.499-.117,1.009-.104,1.478m2.24,1.65c.445-.029.765-.678.715-1.448s-.452-1.372-.896-1.343c-.445.029-.766.678-.715,1.448s.46,1.37.9,1.34m1.82,4.35c.44-.029.852-.203 1.198-.48m1.72-6.21c-.074-.569-.193-1.106-.338-1.564m-3.03,8.23c.157.026.312.032.445.022c.388.036.795.055 1.198.049m-8.15,3.02 2.477-.248m11.86-13.13c-1.406-.581-2.76.22-3.609,1.918m83.26,3.52-6.517,1.045m6.72-1.05 2.399.942-6.482.98m-.01.01-14.549-5.125m11.92,4.24-.161-10.635m0,.01c.054-2.367-1.345-2.528-2.26-1.507l-2.38,3.4m0-.04-.033,6.573m-1.21-.08-.292-10.076m-2.48-.21-.913,2.055m0-.01-.034,6.878m9.66-1.95c1.294-.496 2.093-2.543 1.951-4.816-.172-2.62-1.536-4.664-3.049-4.565-1.44.095-2.495,2.097-2.444,4.565m2.21,1.64c.438-.028.753-.667.703-1.426s-.445-1.352-.883-1.322-.754.667-.704,1.426 .44,1.35.88,1.32m1.79,4.28c1.829-.119 3.145-2.785 2.938-5.954s-1.858-5.641-3.688-5.521c-.915.06-1.701.756-2.232,1.833m2.54,9.62c.154.025.307.032.438.021m3.49-.41c1.63-.499 2.673-3.026 2.493-5.872-.198-3.039-1.726-5.438-3.475-5.523m-2.51,11.8c1.31.122 2.854.043 3.645-.512m-5.31-10.73c1.662-.752 3.602-.792 4.512-.475m3.5,15.17 .362-10.335c.036-1.612-.601-2.201-1.3-2.09m-12.04,5.57c1.146-.439 1.855-2.254 1.729-4.27-.021-.319-.062-.629-.115-.897m-4.76.56c-.003.118-.003.235-.001.337m1.96,1.44c.389-.025.668-.592.624-1.265-.021-.31-.106-.589-.229-.795m-1.07.14c-.087.23-.118.5-.101.76 .044.673.395,1.197.783,1.173m1.58,3.8c.384-.024.743-.177 1.046-.419m1.5-5.42c-.021-.159-.046-.315-.07-.449m-2.86,6.27c.137.022.271.028.389.019m-.01,0c.338.032.693.048 1.046.043m11.33,5.85-6.446-2.38m-11.99-.83 2.162-.217m47.32-.14-6.516,1.045m6.72-1.06 2.399.943-6.483.979l-14.549-5.125m11.92,4.25-.162-10.635c.054-2.367-1.345-2.528-2.26-1.507l-2.38,3.4m0-.04-.033,6.573m-1.21-.08-.292-10.076c.005-.218-.009-.416-.039-.595m-2.4.29-.956,2.151l-.035,6.878m9.68-1.95c1.294-.495 2.094-2.543 1.951-4.816-.171-2.62-1.536-4.664-3.049-4.565-1.439.095-2.494,2.097-2.444,4.565m2.21,1.65c.438-.029.753-.668.704-1.427s-.445-1.352-.884-1.322-.753.667-.704,1.426c.05.75.44,1.34.88,1.32m1.79,4.28c1.829-.119 3.145-2.785 2.938-5.954s-1.858-5.641-3.688-5.521c-.915.06-1.701.756-2.232,1.833m2.54,9.62c.154.024.307.031.438.021m3.48-.41c1.631-.499 2.673-3.026 2.493-5.872-.198-3.039-1.726-5.438-3.475-5.523m-2.5,11.8c1.31.122 2.854.043 3.646-.512m-5.31-10.73c1.662-.752 3.602-.791 4.512-.475m3.49,15.16 .361-10.335m.01,0c.036-1.612-.601-2.201-1.3-2.09m-12.04,5.57c1.147-.439 1.855-2.254 1.729-4.27-.025-.396-.082-.775-.159-1.105m-4.71.68c-.005.149-.007.299-.003.428m1.96,1.45c.389-.025.668-.592.624-1.265-.022-.336-.12-.636-.263-.848m-1,.06c-.122.246-.17.563-.149.874 .044.673.394,1.198.782,1.173m1.59,3.81c.385-.025.744-.178 1.046-.419m1.5-5.42c-.086-.662-.241-1.274-.438-1.786m-2.5,7.61c.137.022.271.028.389.02m4.46-8.69c-.613-1.137-1.431-1.739-2.238-1.778m-2.22,10.47c.338.032.694.048 1.046.043m11.32,5.85-6.446-2.38m-11.98-.83 2.162-.217m-156.36,26.91-7.464,1.196m7.69-1.21 2.749,1.08-7.426,1.122m0,.01-16.665-5.87m13.64,4.87-.186-12.182m.01,0c.062-2.711-1.54-2.896-2.588-1.725l-2.726,3.895m.01-.05-.038,7.529m-1.38-.1-.335-11.541c.02-.853-.215-1.437-.541-1.783m-1.72.2-.024.064l-1.612,3.626l-.039,7.879m11.08-2.24c1.482-.568 2.397-2.913 2.234-5.519-.196-3-1.76-5.342-3.492-5.228-1.649.107-2.857,2.4-2.8,5.229m2.53,1.88c.502-.033.863-.765.807-1.634s-.51-1.548-1.013-1.516-.862.765-.806,1.634 .51,1.55 1.01,1.52m2.05,4.9c2.096-.137 3.602-3.19 3.364-6.82s-2.128-6.46-4.224-6.323c-1.048.068-1.948.866-2.558,2.101m2.92,11.02c.177.029.351.036.502.024m3.99-.47c1.868-.572 3.062-3.467 2.855-6.727-.228-3.481-1.977-6.229-3.98-6.326m-2.87,13.53c1.5.14 3.269.049 4.175-.586m-6.07-12.28c1.903-.861 4.125-.907 5.168-.544m4,17.36 .414-11.838m0,.01c.042-1.847-.688-2.521-1.488-2.395m-13.79,6.37c1.313-.503 2.125-2.581 1.98-4.89-.055-.833-.228-1.607-.479-2.252m-4.95.58c-.11.557-.154,1.133-.14,1.667m2.24,1.66c.444-.029.765-.678.714-1.448s-.451-1.371-.896-1.342-.765.677-.715,1.447c.06.76.46,1.37.9,1.34m1.82,4.35c.44-.028.852-.203 1.198-.479m1.72-6.21c-.083-.639-.223-1.236-.396-1.743m-2.97,8.4c.157.025.312.032.445.021m0,.01c.388.036.795.055 1.198.049m12.97,6.69-7.384-2.727m-13.73-.94 2.477-.248m-229.42,36.52-9.03.937" fill="none" stroke="#000" stroke-linecap="round" stroke-width=".7056"/>
 <path d="m88.537,304.05 2.184,1.229-8.62.937l-16.092-7.437l1.335-.162m12.163,6.37-.202-13.265c.067-2.953-1.677-3.154-2.818-1.879" fill="none" stroke="#000" stroke-linecap="round" stroke-width="1.1304"/>
 <path d="m76.487,289.84-2.969,4.24m.001-.05-.042,8.199" fill="none" stroke="#000" stroke-linecap="round" stroke-width=".7056"/>
 <path d="m71.791,301.23-.178-11.671c.059-2.598-2.042-2.907-2.479-1.653" fill="none" stroke="#000" stroke-linecap="round" stroke-width="1.1304"/>
 <path d="m69.134,287.9-1.755,3.948l-.038,7.438m12.058-1.29c1.615-.618 2.612-3.172 2.434-6.009-.214-3.268-1.916-5.816-3.803-5.693-1.796.117-3.112,2.614-3.049,5.694m2.758,2.04c.547-.036.94-.833.878-1.779s-.555-1.686-1.102-1.649-.939.832-.877,1.778c.061.94.554,1.68 1.101,1.65m2.231,5.34c2.282-.148 3.923-3.474 3.665-7.426s-2.318-7.036-4.6-6.887c-1.141.074-2.122.942-2.785,2.287m3.174,12c.192.031.382.039.546.026m4.346-.51c2.034-.623 3.334-3.775 3.11-7.324-.248-3.791-2.153-6.783-4.334-6.89m-3.121,14.72c1.634.151 3.559.053 4.546-.638m-6.615-13.38c2.074-.938 4.493-.987 5.628-.592" fill="none" stroke="#000" stroke-linecap="round" stroke-width=".7056"/>
 <path d="m88.537,304.05-.202-13.266c.045-2.01-.749-2.745-1.621-2.606" fill="none" stroke="#000" stroke-linecap="round" stroke-width="1.1304"/>
 <path d="m71.697,295.12c1.431-.548 2.314-2.812 2.157-5.325-.098-1.501-.551-2.831-1.198-3.751m-4.272.5c-.435.944-.63,2.1-.603,3.247m2.444,1.8c.484-.031.833-.737.778-1.576-.055-.84-.492-1.494-.977-1.463s-.833.738-.778,1.577 .493,1.49.977,1.46m1.978,4.74c.48-.032.928-.222 1.305-.523m1.873-6.77c-.163-1.244-.521-2.35-.995-3.209m-2.668,10.47c.171.028.339.035.484.024m.001.01c.422.04.866.06 1.305.054m15.029,7.66-9.117-4.071m41.84-.05-9.029.938" fill="none" stroke="#000" stroke-linecap="round" stroke-width=".7056"/>
 <path d="m121.26,299.93 2.184,1.229-8.62.938l-16.092-7.437l1.336-.162m12.17,6.37-.202-13.266m-.01,0c.067-2.952-1.678-3.153-2.818-1.879" fill="none" stroke="#000" stroke-linecap="round" stroke-width="1.1304"/>
 <path d="m109.21,285.72-2.968,4.241m0-.05-.042,8.199" fill="none" stroke="#000" stroke-linecap="round" stroke-width=".7056"/>
 <path d="m104.51,297.11-.178-11.672c.059-2.597-2.042-2.906-2.479-1.652" fill="none" stroke="#000" stroke-linecap="round" stroke-width="1.1304"/>
 <path d="m101.85,283.78-1.755,3.948l-.038,7.438m12.06-1.29c1.614-.619 2.611-3.173 2.434-6.009-.213-3.268-1.916-5.817-3.803-5.693-1.796.117-3.112,2.614-3.049,5.693m2.76,2.04c.546-.035.939-.832.878-1.778s-.555-1.686-1.102-1.65-.94.833-.878,1.779 .55,1.68 1.1,1.65m2.23,5.34c2.282-.149 3.922-3.474 3.664-7.427s-2.317-7.035-4.599-6.887c-1.141.075-2.122.943-2.785,2.287m3.18,12.01c.193.031.382.039.547.026m4.35-.52c2.034-.623 3.334-3.775 3.11-7.324-.248-3.792-2.152-6.783-4.333-6.89m-3.13,14.72c1.634.151 3.56.053 4.547-.639m-6.62-13.37c2.073-.938 4.492-.987 5.628-.593" fill="none" stroke="#000" stroke-linecap="round" stroke-width=".7056"/>
 <path d="m121.26,299.93-.202-13.265m-.01,0c.046-2.011-.749-2.745-1.62-2.606" fill="none" stroke="#000" stroke-linecap="round" stroke-width="1.1304"/>
 <path d="m104.42,291c1.431-.549 2.314-2.812 2.157-5.325-.09-1.378-.479-2.612-1.04-3.513m-4.55.53c-.356.898-.512,1.947-.487,2.976m2.44,1.8c.485-.031.833-.737.778-1.577-.055-.839-.492-1.493-.977-1.462s-.833.737-.778,1.577c.06.84.5,1.49.98,1.46m1.98,4.74c.48-.031.928-.221 1.305-.522m1.88-6.77c-.148-1.136-.459-2.155-.868-2.967m-2.79,10.23c.17.027.338.035.484.023m0,.01c.422.039.866.06 1.304.054m15.04,7.66-9.117-4.07m44.96-.06-9.029.938" fill="none" stroke="#000" stroke-linecap="round" stroke-width=".7056"/>
 <path d="m157.1,295.8 2.184,1.229-8.62.937m.01-.01-16.092-7.437m0,.01 1.335-.162m12.16,6.37-.202-13.266m-.01,0c.067-2.952-1.678-3.153-2.818-1.879" fill="none" stroke="#000" stroke-linecap="round" stroke-width="1.1304"/>
 <path d="m145.05,281.59-2.969,4.241m.01-.05-.042,8.199" fill="none" stroke="#000" stroke-linecap="round" stroke-width=".7056"/>
 <path d="m140.36,292.98-.178-11.672c.059-2.598-2.042-2.906-2.48-1.652" fill="none" stroke="#000" stroke-linecap="round" stroke-width="1.1304"/>
 <path d="m137.7,279.65-1.754,3.948l-.038,7.438m12.06-1.29c1.614-.619 2.611-3.172 2.434-6.009-.213-3.268-1.916-5.817-3.803-5.693-1.796.117-3.112,2.614-3.049,5.693m2.76,2.04c.546-.035.939-.832.877-1.778s-.555-1.686-1.102-1.65-.94.832-.878,1.779 .55,1.68 1.1,1.65m2.23,5.34c2.282-.149 3.922-3.475 3.664-7.427s-2.317-7.035-4.6-6.887c-1.141.075-2.121.943-2.785,2.287m3.17,12.01c.193.031.382.039.547.026m4.34-.52c2.034-.623 3.334-3.775 3.11-7.324-.248-3.791-2.152-6.783-4.333-6.89m-3.12,14.72c1.634.151 3.56.053 4.547-.639m-6.62-13.38c2.073-.938 4.492-.987 5.628-.593" fill="none" stroke="#000" stroke-linecap="round" stroke-width=".7056"/>
 <path d="m157.1,295.8-.202-13.265m0-.01c.046-2.011-.749-2.745-1.621-2.606" fill="none" stroke="#000" stroke-linecap="round" stroke-width="1.1304"/>
 <path d="m140.26,286.87c1.431-.549 2.314-2.812 2.157-5.325-.093-1.425-.505-2.695-1.099-3.604m-4.44.53c-.385.918-.556,2.007-.53,3.081m2.44,1.8c.485-.031.833-.737.778-1.577-.055-.839-.492-1.493-.977-1.462s-.833.737-.778,1.577c.06.84.5,1.49.98,1.46m1.98,4.74c.48-.031.927-.221 1.305-.522m1.87-6.77c-.153-1.178-.483-2.23-.916-3.061m-2.74,10.32c.17.027.338.035.484.023m0,.01c.422.039.866.06 1.304.054m15.03,7.66-9.117-4.07m38.85.45-9.03.937" fill="none" stroke="#000" stroke-linecap="round" stroke-width=".7056"/>
 <path d="m186.83,292.18 2.184,1.229-8.62.937m0-.01-16.092-7.437l1.335-.162m12.16,6.37-.202-13.266m0,.01c.067-2.952-1.678-3.153-2.818-1.878" fill="none" stroke="#000" stroke-linecap="round" stroke-width="1.1304"/>
 <path d="m174.78,277.97-2.969,4.24m0-.05-.042,8.199" fill="none" stroke="#000" stroke-linecap="round" stroke-width=".7056"/>
 <path d="m170.08,289.35-.178-11.671c.059-2.598-2.042-2.907-2.479-1.653" fill="none" stroke="#000" stroke-linecap="round" stroke-width="1.1304"/>
 <path d="m167.42,276.03-1.755,3.948m.01,0-.038,7.438m12.06-1.3c1.614-.619 2.611-3.172 2.434-6.009-.214-3.268-1.916-5.816-3.803-5.693-1.796.117-3.112,2.614-3.049,5.693m2.76,2.04c.547-.036.94-.833.878-1.779s-.555-1.686-1.102-1.65-.939.833-.877,1.779 .55,1.69 1.1,1.65m2.23,5.35c2.282-.149 3.923-3.474 3.665-7.427s-2.317-7.035-4.6-6.886c-1.141.074-2.122.942-2.785,2.287m3.17,12c.192.031.382.039.546.026m4.35-.52c2.034-.623 3.334-3.775 3.11-7.324-.248-3.791-2.152-6.783-4.334-6.89m-3.13,14.73c1.634.151 3.559.053 4.546-.638m-6.62-13.38c2.073-.938 4.492-.987 5.627-.592" fill="none" stroke="#000" stroke-linecap="round" stroke-width=".7056"/>
 <path d="m186.83,292.18-.202-13.266m-.01,0c.046-2.011-.749-2.745-1.621-2.606" fill="none" stroke="#000" stroke-linecap="round" stroke-width="1.1304"/>
 <path d="m169.99,283.25c1.431-.548 2.314-2.812 2.157-5.325-.089-1.37-.475-2.598-1.03-3.496m-4.57.54c-.351.896-.505,1.937-.479,2.957m2.45,1.81c.484-.031.833-.737.778-1.576-.055-.84-.492-1.494-.977-1.463s-.833.738-.778,1.577 .49,1.49.98,1.46m1.97,4.73c.48-.031.928-.221 1.305-.522m1.87-6.76c-.147-1.128-.456-2.142-.86-2.95m-2.8,10.21c.171.028.339.035.484.023c.421.039.865.06 1.304.054m15.04,7.67-9.117-4.071m40.29-.04-9.03.937" fill="none" stroke="#000" stroke-linecap="round" stroke-width=".7056"/>
 <path d="m218,288.07 2.184,1.229-8.62.937m0-.01-16.092-7.437m0,.01 1.335-.162m12.17,6.36-.202-13.265c.067-2.953-1.677-3.154-2.818-1.879" fill="none" stroke="#000" stroke-linecap="round" stroke-width="1.1304"/>
 <path d="m205.95,273.86-2.969,4.24m0-.05-.042,8.198" fill="none" stroke="#000" stroke-linecap="round" stroke-width=".7056"/>
 <path d="m201.25,285.24-.178-11.671m.01,0c.059-2.598-2.042-2.907-2.479-1.653" fill="none" stroke="#000" stroke-linecap="round" stroke-width="1.1304"/>
 <path d="m198.6,271.92-1.755,3.948l-.038,7.438m12.06-1.29c1.614-.618 2.611-3.172 2.434-6.008-.213-3.269-1.916-5.817-3.803-5.694-1.796.117-3.112,2.614-3.049,5.694m2.76,2.03c.547-.036.94-.832.878-1.779s-.555-1.686-1.102-1.649-.94.832-.878,1.779 .56,1.69 1.1,1.65m2.23,5.35c2.282-.148 3.922-3.474 3.664-7.426s-2.317-7.036-4.6-6.887c-1.141.074-2.122.943-2.785,2.287m3.19,12c.192.031.382.04.547.026m4.34-.51c2.034-.623 3.334-3.775 3.11-7.324-.248-3.791-2.152-6.782-4.334-6.889m-3.13,14.72c1.634.152 3.559.054 4.546-.638m-6.62-13.38c2.073-.938 4.492-.987 5.627-.592" fill="none" stroke="#000" stroke-linecap="round" stroke-width=".7056"/>
 <path d="m218,288.07-.202-13.266c.046-2.01-.749-2.745-1.621-2.606" fill="none" stroke="#000" stroke-linecap="round" stroke-width="1.1304"/>
 <path d="m201.16,279.14c1.431-.548 2.314-2.812 2.157-5.325-.077-1.18-.373-2.253-.804-3.092m-4.95.57c-.243.797-.346,1.671-.324,2.509m2.44,1.81c.484-.031.833-.737.778-1.576s-.492-1.494-.977-1.462-.833.737-.778,1.576c.06.84.49,1.49.98,1.46m1.98,4.73c.48-.031.928-.222 1.305-.522m1.86-6.76c-.125-.954-.364-1.826-.673-2.542m-2.99,9.8c.171.027.339.034.484.023m.01,0c.422.039.866.06 1.305.053m15.02,7.67-9.117-4.071m37.44.58-9.029.937" fill="none" stroke="#000" stroke-linecap="round" stroke-width=".7056"/>
 <path d="m246.32,284.58 2.184,1.229-8.62.937m0-.01-16.092-7.437m0,.01 1.335-.162m12.17,6.37-.202-13.266m-.01,0c.067-2.952-1.678-3.153-2.818-1.879" fill="none" stroke="#000" stroke-linecap="round" stroke-width="1.1304"/>
 <path d="m234.27,270.37-2.969,4.241m0-.05-.042,8.199" fill="none" stroke="#000" stroke-linecap="round" stroke-width=".7056"/>
 <path d="m229.57,281.76-.178-11.671c.059-2.598-2.042-2.907-2.48-1.653" fill="none" stroke="#000" stroke-linecap="round" stroke-width="1.1304"/>
 <path d="m226.91,268.43-1.754,3.948l-.038,7.438m12.06-1.29c1.614-.619 2.611-3.172 2.434-6.009-.213-3.268-1.916-5.816-3.803-5.693-1.796.117-3.112,2.614-3.049,5.693m2.76,2.04c.546-.036.939-.833.877-1.779s-.555-1.686-1.102-1.65-.94.833-.878,1.779c.06.94.55,1.68 1.1,1.65m2.23,5.34c2.282-.149 3.922-3.474 3.664-7.427s-2.317-7.035-4.599-6.887c-1.141.075-2.122.943-2.785,2.287m3.18,12c.193.031.382.039.547.026m4.35-.51c2.034-.623 3.334-3.775 3.11-7.324-.248-3.791-2.152-6.783-4.333-6.89m-3.13,14.72c1.634.151 3.56.053 4.546-.638m-6.62-13.38c2.073-.938 4.492-.987 5.628-.593" fill="none" stroke="#000" stroke-linecap="round" stroke-width=".7056"/>
 <path d="m246.32,284.58-.202-13.266m-.01,0c.046-2.011-.749-2.745-1.621-2.606" fill="none" stroke="#000" stroke-linecap="round" stroke-width="1.1304"/>
 <path d="m229.48,275.65c1.431-.549 2.314-2.812 2.157-5.325-.073-1.118-.343-2.141-.735-2.953m-5.06.6c-.212.759-.301,1.577-.28,2.356m2.44,1.8c.485-.031.833-.737.778-1.577-.055-.839-.492-1.493-.977-1.462s-.833.738-.778,1.577c.06.84.5,1.49.98,1.46m1.98,4.73c.48-.031.928-.221 1.305-.522m1.88-6.76c-.117-.896-.335-1.72-.615-2.401m-3.04,9.66c.17.028.338.035.484.023c.422.039.866.06 1.304.054m15.04,7.67-9.117-4.071" fill="none" stroke="#000" stroke-linecap="round" stroke-width=".7056"/>
 <path d="m42.719,300.8 23.852-3.336m21.011-2.94 12.336-1.725m21.012-2.94 14.997-2.098m21.01-2.94 8.714-1.218m21-2.93 10.174-1.423m21-2.94 7.322-1.024m76.46-10.7 16.377-2.29m19.25-2.69 3.655-.511m19.25-2.7 3.664-.513m19.21-2.68 3.708-.518m-151.23,144.03 1.883-101.05m-1.88,101.05-6.904,2.197" fill="none" stroke="#000" stroke-linecap="round" stroke-width="1.1304"/>
 <path d="m228.57 398.92 2.2-103.25" fill="none" stroke="#000" stroke-linecap="round" stroke-width=".7056"/>
 <path d="m224.54 396.97 2.148-100.98m1.88 102.93-4.031-1.952m-3.86-23.92 4.392-1.182m-4.31 15.22 4.019-1.082" fill="none" stroke="#000" stroke-linecap="round" stroke-width="1.1304"/>
 <path d="m262.72,405.58c0,1.174-.783,2.087-3.914,3.131s-9.654,3.131-13.307,3.783-7.188,1.117-10.437-.392c-3.653-1.696-8.088-3.392-8.088-4.566" fill="none" stroke="#000" stroke-linecap="round" stroke-width=".7056"/>
 <path d="m226.97,407.54-.13-9.132m35.88,7.17 .913-30.919m-.13,16.18 1.565-.391m.01,0 58.444,33.526" fill="none" stroke="#000" stroke-linecap="round" stroke-width="1.1304"/>
 <path d="m323.51 423.98-57.01 15.65" fill="none" stroke="#000" stroke-linecap="round" stroke-width="1.6992"/>
 <path d="m240.08 411.12 1.302-54.859m1.49 54.86 1.302-54.859" fill="none" stroke="#000" stroke-linecap="round" stroke-width=".7056"/>
 <path d="m254.95,372.44c.744,2.418 12.459,2.79 13.018.744l1.302-35.892m-14.32,35.15 .558-35.705" fill="none" stroke="#000" stroke-linecap="round" stroke-width="1.1304"/>
 <path d="m263.88 337.48-6.51-2.05" fill="none" stroke="#000" stroke-linecap="round" stroke-width=".7056"/>
 <path d="m257.37 335.43v-4.092l-20.828-7.438" fill="none" stroke="#000" stroke-linecap="round" stroke-width="1.1304"/>
 <path d="m255.51,336.73c.744,2.417 12.46,2.789 13.018.744" fill="none" stroke="#000" stroke-linecap="round" stroke-width=".7056"/>
 <path d="m255.51,336.73s0-.93 1.86-1.302" fill="none" stroke="#000" stroke-linecap="round" stroke-width="1.1304"/>
 <path d="m263.88,337.48 .132-13.03l22.963-3.281" fill="none" stroke="#000" stroke-linecap="round" stroke-width=".7056"/>
 <path d="m286.98,321.17-.364,12.576m-.01-.01-22.731,3.735m23.1-16.31-4.92-1.093m0-.01v-2.188" fill="none" stroke="#000" stroke-linecap="round" stroke-width="1.1304"/>
 <path d="m282.06,317.89-20.23,2.916m20.23-.74-20.23,2.916" fill="none" stroke="#000" stroke-linecap="round" stroke-width=".7056"/>
 <path d="m288.02 275.02-24.01 3.68" fill="none" stroke="#000" stroke-linecap="round" stroke-width="1.1304"/>
 <path d="m264.01,278.7c6.925,16.22 3.098,31.165-1.458,37.908s-1.64,5.649-.729,6.379" fill="none" stroke="#000" stroke-linecap="round" stroke-width=".7056"/>
 <path d="m288.02,275.02c6.926,16.22 2.962,30.836-1.595,37.579-.855,1.267-3.982,4.508-4.373,5.285m-18.04-39.18-17.898-7.39" fill="none" stroke="#000" stroke-linecap="round" stroke-width="1.1304"/>
 <path d="m268.47 278.02c-1.819-6.925-4.661-11.784-7.841-14.152" fill="none" stroke="#000" stroke-linecap="round" stroke-width=".7056"/>
 <path d="m250.08 265.11c-1.559 1.616-2.912 3.787-3.962 6.203m34.25 4.89c-1.979-6.946-4.997-11.639-8.313-13.681m-6.4 15.93c-2.314-7.05-5.944-10.822-9.644-10.817" fill="none" stroke="#000" stroke-linecap="round" stroke-width="1.6992"/>
 <path d="m256.02,267.63c-2.574.028-4.931,1.892-6.789,4.972" fill="none" stroke="#000" stroke-linecap="round" stroke-width=".7056"/>
 <path d="m256.03,268.48c-2.487.027-4.904,1.429-6.699,4.406l-.197-.567c1.919-3.184 4.217-5.509 6.877-5.538l.02,1.7"/>
 <path d="m288.02 275.02-9.44-3.9" fill="none" stroke="#000" stroke-linecap="round" stroke-width="1.1304"/>
 <path d="m283.96 275.64-4.32-1.78" fill="none" stroke="#000" stroke-linecap="round" stroke-width=".7056"/>
 <path d="m281.19 344.53c0 5.244 7.363 9.495 16.446 9.495s16.446-4.251 16.446-9.495" fill="none" stroke="#000" stroke-linecap="round" stroke-width="1.6992"/>
 <path d="m286.43 312.6c3.172 1.135 7.199 1.695 11.203 1.693 9.083 0 16.446-2.83 16.446-6.322" fill="none" stroke="#000" stroke-linecap="round" stroke-width=".7056"/>
 <path d="m314.08 307.97v36.563m-32.89-9.9v9.896" fill="none" stroke="#000" stroke-linecap="round" stroke-width="1.6992"/>
 <path d="m288.96,311.55c2.456.878 5.573,1.313 8.672,1.311 7.029,0 12.729-2.19 12.729-4.894" fill="none" stroke="#000" stroke-linecap="round" stroke-width=".7056"/>
 <path d="m314.08,307.97c.182-2.947-5.715-6.102-5.441-9.941m3.29-21.54c.822,14.125-.412,20.16-3.292,21.531" fill="none" stroke="#000" stroke-linecap="round" stroke-width="1.6992"/>
 <path d="m299.45,278.14 5.897-.411m-5.9.41-4.8-3.565m.69,2.19c.549,6.856 2.194,19.199-1.234,24.548m5.34-23.18-.274,20.16s-.548,6.034-3.017,7.405m9.19-27.97s-.274,13.577 1.097,16.457m-1.1-16.46-4.525-2.469" fill="none" stroke="#000" stroke-linecap="round" stroke-width=".7056"/>
 <path d="m311.93 276.49s-1.372-2.88-6.721-4.663-22.217-2.194-22.217 1.097" fill="none" stroke="#000" stroke-linecap="round" stroke-width="1.6992"/>
 <path d="m305.35,277.73s7.817,0 6.309-1.92m-16.05,3.43c0-.001-4.937.411-6.445-1.235m4.78-7.68c1.836-.282 2.918-3.15 2.417-6.406s-2.395-5.666-4.23-5.384" fill="none" stroke="#000" stroke-linecap="round" stroke-width=".7056"/>
 <path d="m292.13,258.53c-1.836.282-2.918,3.15-2.417,6.406s2.395,5.666 4.23,5.384" fill="none" stroke="#000" stroke-linecap="round" stroke-width="1.1304"/>
 <path d="m294.65,260.17c-.777-.988-1.628-1.197-2.429-1.074l-.172-1.117c.901-.139 1.928.542 2.803,1.655l-.2.53"/>
 <path d="m293.86,269.77c.831-.128 1.598-.705 1.994-1.755l.354.45c-.479,1.27-1.171,2.268-2.176,2.422l-.16-1.12"/>
 <path d="m299.07,269.68c1.835-.282 2.918-3.15 2.417-6.406s-2.396-5.666-4.231-5.384m1.81,11.79-5.124.641m3.3-12.43-5.123.641" fill="none" stroke="#000" stroke-linecap="round" stroke-width="1.1304"/>
 <path d="m293.46,267.16c.852-.131 1.353-1.461 1.121-2.97s-1.11-2.627-1.962-2.496-1.353,1.461-1.12,2.97c.23,1.52 1.11,2.63 1.96,2.5m-6.43.09c1.836-.282 2.918-3.15 2.417-6.406-.021-.132-.043-.262-.064-.373m-4.07-5.02-.108.014" fill="none" stroke="#000" stroke-linecap="round" stroke-width=".7056"/>
 <path d="m282.72,261.26c.02.215.047.427.076.61 .5,3.255 2.395,5.665 4.23,5.383" fill="none" stroke="#000" stroke-linecap="round" stroke-width="1.1304"/>
 <path d="m286.94,266.69c.831-.128 1.598-.705 1.994-1.755l.354.45c-.479,1.27-1.171,2.268-2.176,2.422l-.16-1.12"/>
 <path d="m290.2,266.85-3.17.4" fill="none" stroke="#000" stroke-linecap="round" stroke-width="1.1304"/>
 <path d="m286.54,264.09c.851-.131 1.353-1.461 1.12-2.97-.023-.154-.055-.305-.087-.435m-3.04.36c.007.192.026.382.053.55 .232,1.509 1.11,2.626 1.962,2.495" fill="none" stroke="#000" stroke-linecap="round" stroke-width=".7056"/>
 <path d="m383.27,188.79-.141,47.593m-90.23,8.64-.015-3.099m-.03-5.65-.022-4.51" fill="none" stroke="#000" stroke-linecap="round" stroke-width="1.1304"/>
 <path d="m348.61,207.11-.136,13.788m11.85-13.94-.061,13.414m0,.01-11.78.52m.13-13.79 11.705-.146m-8.62,8.12 6.917-.086m-.01,0-.024,5.458m-37.24,21.96v-13.033m-4.81,29.82v-1.932m0-14.42v-5.779" fill="none" stroke="#000" stroke-linecap="round" stroke-width=".7056"/>
 <path d="m378.68 288.09-29.067-8.914m29.07 8.91 14.823-2.219m52.07-7.79 104.04-15.57" fill="none" stroke="#000" stroke-linecap="round" stroke-width="1.1304"/>
 <path d="m378.11 278.5 16.046-2.162m56.04-7.56 83.904-11.311" fill="none" stroke="#000" stroke-linecap="round" stroke-width=".7056"/>
 <path d="m378.68 288.09v-9.47" fill="none" stroke="#000" stroke-linecap="round" stroke-width="1.1304"/>
 <path d="m378.68 278.62-10.271-2.159m9.91 41.25-1.273 104.87" fill="none" stroke="#000" stroke-linecap="round" stroke-width=".7056"/>
 <path d="m372.04,323.08-1.051,59.635m-.15,8.74-.48,27.293m13.64-94.78-.622,95.903" fill="none" stroke="#000" stroke-linecap="round" stroke-width="1.1304"/>
 <path d="m383.38 419.87-6.326 2.706l-6.696-3.831" fill="none" stroke="#000" stroke-linecap="round" stroke-width=".7056"/>
 <path d="m378.32 317.71-45.25-17.61l-2.249 96.034" fill="none" stroke="#000" stroke-linecap="round" stroke-width="1.1304"/>
 <path d="m338.5,309.93-1.354,57.821m-.18,7.26-.566,24.196" fill="none" stroke="#000" stroke-linecap="round" stroke-width=".7056"/>
 <path d="m344.92,312.45-1.26,53.784m-.27,11.89-.454,19.42m.45-19.42-6.416-3.117" fill="none" stroke="#000" stroke-linecap="round" stroke-width="1.1304"/>
 <path d="m336.4 399.2 6.528-1.661m-6.53 1.66-5.58-3.068m40.17-13.41-33.85-14.968l6.524-1.516" fill="none" stroke="#000" stroke-linecap="round" stroke-width=".7056"/>
 <path d="m371.07 378.35-27.401-12.116m12.1 5.36 15.477-3.459m12.48-2.79 5.814-1.3m49.38-11.04 31.544-7.051" fill="none" stroke="#000" stroke-linecap="round" stroke-width="1.1304"/>
 <path d="m362.43 374.53 8.735-1.992m12.54-2.86 5.645-1.287m49.96-11.39 32.563-7.427" fill="none" stroke="#000" stroke-linecap="round" stroke-width=".7056"/>
 <path d="m383.65 377.4 5.197-1.206m50-11.6 23.8-5.523" fill="none" stroke="#000" stroke-linecap="round" stroke-width="1.1304"/>
 <path d="m378.32 317.71 10.867-1.886m48.91-8.48 32.153-5.578" fill="none" stroke="#000" stroke-linecap="round" stroke-width=".7056"/>
 <path d="m384,323.97 4.22-.732m49.43-8.58 38.271-6.64m-103.88,15.06-33.546-13.153m40.49,3.33-31.338-11.712m-14.57-1.45 59.684-8.581m49.13-7.06 54.416-7.823" fill="none" stroke="#000" stroke-linecap="round" stroke-width="1.1304"/>
 <path d="m347.65 301.55 44.59-6.41" fill="none" stroke="#000" stroke-linecap="round" stroke-width=".7056"/>
 <path d="m357.52 305.24 33.963-4.883m-12.5 12.9 10.853-1.81m48.67-8.11 50.783-8.468" fill="none" stroke="#000" stroke-linecap="round" stroke-width="1.1304"/>
 <path d="m370.84 391.46-27.45-13.34" fill="none" stroke="#000" stroke-linecap="round" stroke-width="1.1304"/>
 <path d="m178.2,145.52 2.34-14.14-4.97.06z"/>
 <path d="m177.4,66.455 .664,66.365m165.95-88.14c.102-1.291.149-2.572.145-3.683 0-20.937-13.665-37.925-30.572-38.061" fill="none" stroke="#000" stroke-linecap="round" stroke-width=".7056"/>
 <path d="m319.12 7.061-12.97-5.583 14.12-1.478z"/>
 <path d="m40.047 259.43c-1.09 13.903 26.171 11.723 11.723 35.713m166.43-88.96c-5.356-1.07-10.687 1.064-14.311 5.214" fill="none" stroke="#000" stroke-linecap="round" stroke-width=".7056"/>
</svg>
