<?xml version="1.0" encoding="UTF-8"?>
<svg viewBox="0 0 319 447" xmlns="http://www.w3.org/2000/svg">
 <defs>
  <filter id="c" x="-.62385" y="-.49017" width="2.2477" height="1.9803" color-interpolation-filters="sRGB">
   <feGaussianBlur stdDeviation="4.281831"/>
  </filter>
  <filter id="d" x="-.15318" y="-.15318" width="1.3064" height="1.3064" color-interpolation-filters="sRGB">
   <feGaussianBlur stdDeviation="0.477898"/>
  </filter>
 </defs>
 <g fill="#fff">
  <g stroke="#0c0c0c" stroke-linecap="round" stroke-linejoin="round" stroke-width="4.024">
   <rect transform="matrix(.64623 0 0 .60008 337.44 940.12)" x="-349.32" y="-1423" width="150.66" height="118.79"/>
   <rect transform="matrix(.64334 .056667 -.061024 .5974 379.4 669.26)" x="-536.6" y="-868.73" width="214.14" height="31.947"/>
  </g>
  <g stroke="#000">
   <path d="m90.155 122.14l131.57 12.492c3.0162-15.168-0.41458-31.359-9.3943-44.334-8.9798-12.976-23.414-22.6-39.525-26.354-3.8445-0.89581-7.7741-1.4695-11.726-1.7505-3.137-0.22304-6.2902-0.26206-9.4309-0.090111-16.342 0.89465-32.22 7.7402-43.502 18.754s-17.85 26.083-17.995 41.283" stroke-width="4.024"/>
   <g stroke-linecap="round" stroke-linejoin="round" stroke-width="4">
    <rect transform="matrix(.64623 0 0 .60008 337.44 940.12)" x="-242.76" y="-1129.6" width="83.439" height="190.92"/>
    <rect transform="matrix(.64623 0 0 .60008 337.44 940.12)" x="-376.41" y="-1128.9" width="83.439" height="190.92"/>
   </g>
  </g>
 </g>
 <g fill="#fff" stroke="#000" stroke-width="4">
  <g stroke-linecap="round" stroke-linejoin="round">
   <rect transform="matrix(.64623 0 0 .60008 337.44 940.12)" x="-446.5" y="-1283" width="100.41" height="33.277"/>
   <path d="m74.106 159.43l-29.234 101.31-28.008-8.1685c12.48-37.74 15.398-103.56 57.241-93.143z"/>
  </g>
  <path d="m57.576 271.62l-3.6556-17.821-41.126-11.032-12.795 12.73 9.139 39.886 13.709 3.3946-5.4835-25.46 24.675 5.0923-12.795 21.216 14.622 3.3947 13.708-31.4z"/>
  <g stroke-linecap="round" stroke-linejoin="round">
   <rect transform="matrix(.64623 0 0 .60008 337.44 940.12)" x="-213.87" y="-1285.5" width="100.41" height="33.277"/>
   <path d="m244.24 197.87l29.234-101.31 28.008 8.1685c-12.48 37.74-15.398 103.56-57.242 93.143z"/>
  </g>
  <path d="m261.83 85.345l3.6556 17.822 41.125 11.03 12.795-12.728-9.139-39.888-13.708-3.3904 5.4832 25.456-24.676-5.0887 12.795-21.219-14.622-3.3905-13.708 31.396z"/>
 </g>
 <g stroke-width="0">
  <path d="m144.36 101.95c-0.81842 7.9044-8.4766 13.704-17.105 12.954-8.6284-0.74976-14.96-7.7653-14.141-15.67 0.81845-7.9043 8.4766-13.704 17.105-12.954 8.6284 0.74976 14.96 7.7653 14.141 15.67z" fill="#0c0000" stroke="#000"/>
  <path d="m197.3 110.91c-0.12613 1.2352-1.3068 2.1416-2.6369 2.0244-1.3302-0.11716-2.3063-1.2134-2.1801-2.4487 0.12616-1.2352 1.3068-2.1415 2.637-2.0244 1.3302 0.11717 2.3063 1.2135 2.18 2.4487z" fill="#666" filter="url(#d)" stroke="#00baff"/>
 </g>
 <path d="m152.19 55.919l21.196 1.867-0.4406 4.3126-6.6264 64.871-21.196-1.8669 6.648-65.082 0.419-4.1017z" fill="#fff" stroke="#120606" stroke-width="4.024"/>
 <path d="m142.07 101.77c-0.69818 6.8348-7.2309 11.85-14.591 11.202-7.3604-0.64832-12.761-6.7145-12.063-13.549 0.69812-6.8348 7.2309-11.85 14.591-11.202 7.3604 0.6483 12.761 6.7146 12.063 13.549z" fill="#e5e5e5" stroke-width="0"/>
 <g fill="#fff">
  <path d="m247.44 271.95c-5.3238 5.3884-13.537 6.77-18.344 3.0858-4.8071-3.6841-4.3882-11.039 0.93573-16.427 5.3238-5.3884 13.537-6.7699 18.344-3.0858 4.8071 3.6841 4.3882 11.039-0.93573 16.427z" filter="url(#c)" stroke-width="0"/>
  <g stroke="#000" stroke-width="4">
   <rect transform="matrix(.64623 0 0 .60008 337.44 940.12)" x="-399.7" y="-1300.6" width="247.49" height="197.33" stroke-linecap="round" stroke-linejoin="round"/>
   <path d="m203.78 316.25h16.826l3.4417 10.345h6.6917l3.2356 7.9799h4.0299v102h-61.375v-102.36h4.78l3.0957-7.6349h5.891l3.4897-10.492 9.8937 0.1596z"/>
   <path d="m116.6 317.22h16.826l3.4418 10.345h6.6917l3.2357 7.9799h4.0299v102h-61.375v-102.36h4.78l3.0956-7.6348h5.891l3.4896-10.492 9.8938 0.1596z"/>
   <path d="m90.012 160.32l132.26 0.4618c1.2924 20.428-3.9422 41.376-14.333 57.362-10.391 15.985-25.83 26.84-42.275 29.722-3.9242 0.68778-7.8969 0.939-11.859 0.80072-3.1449-0.1098-6.2852-0.46481-9.3893-1.097-16.151-3.289-31.172-14.381-41.153-30.387-9.9804-16.006-14.817-36.762-13.25-56.862"/>
   <path d="m98.051 159.85l132.26 0.4618c1.2924 20.428-3.9422 41.376-14.333 57.362-10.391 15.985-25.83 26.84-42.275 29.722-3.9242 0.6878-7.8969 0.93906-11.859 0.80075-3.1449-0.10977-6.2851-0.46481-9.3893-1.097-16.151-3.2891-31.172-14.381-41.153-30.387-9.9804-16.006-14.817-36.762-13.25-56.862"/>
   <path d="m94.395 159.85l132.26 0.4618c1.2924 20.428-3.9422 41.376-14.333 57.362-10.391 15.985-25.83 26.84-42.275 29.722-3.9242 0.6878-7.8968 0.93906-11.859 0.80075-3.1449-0.10977-6.2852-0.46481-9.3893-1.097-16.151-3.2891-31.172-14.381-41.153-30.387-9.9804-16.006-14.817-36.762-13.25-56.862"/>
   <path d="m144.64 278.02l44.25 0.1545c2.152 6.1162 1.2954 13.086-2.2856 18.595-3.5809 5.5086-9.8232 9.4597-16.654 10.541-1.3095 0.20728-2.6402 0.31424-3.9676 0.26788-1.0558-0.036896-2.1062-0.17059-3.1414-0.367-6.6999-1.2712-12.735-5.3039-16.162-10.799-3.4265-5.4953-4.1883-12.363-2.04-18.392"/>
   <path d="m105.88 277.66l44.724 0.3432-0.3696 32.262h-15.154l-29.2-32.606z"/>
   <path d="m226.22 277.66l-44.723 0.3432 0.3696 32.262h15.154l29.199-32.606z"/>
   <path d="m195.56 207.18c0 16.9-14.754 30.601-32.954 30.601s-32.954-13.7-32.954-30.601c0-16.9 14.754-30.601 32.954-30.601s32.954 13.7 32.954 30.601z" stroke-linecap="round" stroke-linejoin="round"/>
  </g>
 </g>
 <path d="m158.69 66.703l6.3988-0.8389c-1.0742-5.6173-0.42331-11.611 1.9088-17.012 2.3283-5.4025 6.3616-10.26 11.512-13.771 3.8311-2.6281 8.3328-4.5141 12.99-6.0884v-3.1e-5c4.709-1.5852 9.6123-2.8518 14.464-4.359 9.6955-3.012 19.006-6.9872 27.723-11.822-9.0316 4.3086-18.534 7.6951-28.281 10.094-4.8803 1.2011-9.8593 2.1749-14.81 3.5136-4.9058 1.3204-9.8034 3.0459-14.275 5.6897-5.9996 3.5689-10.931 8.7319-14.054 14.806-3.1187 6.0751-4.3916 12.986-3.5775 19.788z" fill-rule="evenodd"/>
 <g fill="#fff" stroke="#191919" stroke-linecap="round" stroke-linejoin="round" stroke-width="4.024">
  <path d="m244.2 17.602c-3.5386 4.6205-10.441 5.7025-15.417 2.4166-4.9759-3.2859-6.141-9.6953-2.6024-14.316 3.5386-4.6205 10.441-5.7024 15.417-2.4166 4.9758 3.2859 6.141 9.6953 2.6024 14.316z"/>
  <path d="m243.05 16.85c-3.1145 4.0668-9.1895 5.019-13.569 2.1269s-5.4051-8.5334-2.2905-12.6c3.1145-4.0668 9.1896-5.019 13.569-2.1269 4.3796 2.8921 5.405 8.5334 2.2906 12.6z"/>
 </g>
 <g fill="#fff" stroke="#000">
  <path d="m170.62 446.55l73.741-0.1939c0.72052-8.5736-2.198-17.366-7.9916-24.075s-14.402-11.265-23.57-12.474c-2.188-0.28873-4.4029-0.39416-6.612-0.33612-1.7534 0.046051-3.5042 0.19507-5.235 0.46033-9.005 1.3805-17.38 6.0356-22.944 12.753-5.5646 6.7179-8.261 15.429-7.3873 23.865" stroke-width="4"/>
  <g stroke-linecap="round" stroke-linejoin="round" stroke-width="2">
   <path d="m208.59 111.18c-0.81842 7.9044-8.4766 13.704-17.105 12.954-8.6283-0.74976-14.96-7.7653-14.141-15.67 0.81842-7.9043 8.4766-13.704 17.105-12.954 8.6284 0.74976 14.96 7.7653 14.141 15.67z"/>
   <path d="m206.3 111c-0.69824 6.8348-7.231 11.85-14.591 11.202-7.3604-0.64832-12.761-6.7145-12.063-13.549 0.69812-6.8348 7.2309-11.85 14.591-11.202 7.3604 0.6483 12.761 6.7146 12.063 13.549z"/>
  </g>
  <path d="m81.898 446.44l73.741-0.1938c0.72049-8.5736-2.198-17.366-7.9916-24.075s-14.402-11.265-23.57-12.474c-2.188-0.28867-4.4029-0.3941-6.6119-0.33606-1.7534 0.046082-3.5043 0.19507-5.235 0.46042-9.005 1.3804-17.38 6.0355-22.945 12.753-5.5645 6.7178-8.261 15.429-7.3873 23.865" stroke-width="4"/>
  <g stroke-linecap="round" stroke-linejoin="round" stroke-width="2">
   <path d="m142.67 103.9c-0.81842 7.9044-8.4766 13.704-17.105 12.954-8.6283-0.74976-14.96-7.7653-14.141-15.67 0.81842-7.9043 8.4766-13.704 17.105-12.954 8.6284 0.74976 14.96 7.7653 14.141 15.67z"/>
   <path d="m140.37 103.72c-0.69824 6.8348-7.231 11.85-14.591 11.202-7.3604-0.64832-12.761-6.7145-12.063-13.549 0.69812-6.8348 7.2309-11.85 14.591-11.202 7.3604 0.6483 12.761 6.7146 12.063 13.549z"/>
  </g>
 </g>
</svg>
