<?xml version="1.0" encoding="iso-8859-1"?>
<!-- Generator: Adobe Illustrator 19.0.0, SVG Export Plug-In . SVG Version: 6.00 Build 0)  -->
<svg version="1.1" id="Capa_1" xmlns="http://www.w3.org/2000/svg" xmlns:xlink="http://www.w3.org/1999/xlink" x="0px" y="0px"
	 viewBox="0 0 512 512" style="enable-background:new 0 0 512 512;" xml:space="preserve">
<g>
	<g>
		<path d="M256,266c-5.52,0-10,4.48-10,10c0,5.52,4.48,10,10,10s10-4.48,10-10C266,270.48,261.52,266,256,266z"/>
	</g>
</g>
<g>
	<g>
		<path d="M216,80c-5.522,0-10,4.477-10,10v20c0,5.523,4.478,10,10,10c5.522,0,10-4.477,10-10V90C226,84.477,221.522,80,216,80z"/>
	</g>
</g>
<g>
	<g>
		<path d="M296,80c-5.522,0-10,4.477-10,10v20c0,5.523,4.478,10,10,10c5.522,0,10-4.477,10-10V90C306,84.477,301.522,80,296,80z"/>
	</g>
</g>
<g>
	<g>
		<path d="M316,266h-20c-5.522,0-10,4.477-10,10s4.478,10,10,10h20c5.514,0,10,4.486,10,10c0,5.514-4.486,10-10,10H196
			c-2.668,0-5.179-1.041-7.068-2.931c-1.891-1.89-2.932-4.401-2.932-7.069c0-5.514,4.486-10,10-10h20c5.522,0,10-4.477,10-10
			s-4.478-10-10-10h-20c-16.542,0-30,13.458-30,30c0,8.01,3.121,15.543,8.79,21.212c5.668,5.667,13.2,8.788,21.21,8.788h120
			c16.542,0,30-13.458,30-30S332.542,266,316,266z"/>
	</g>
</g>
<g>
	<g>
		<path d="M512,336c0-13.036-8.361-24.152-20-28.28v-47.081c12.196-7.052,20-20.2,20-34.639c0-22.056-17.944-40-40-40
			c-18.912,0-34.79,13.198-38.935,30.865C424.526,210.073,413.733,206,402,206c-15.849,0-30.628,7.521-39.996,20
			c-0.001,0-0.002,0-0.004,0h-56v-20h50c16.575,0,30-13.424,30-30c0-13.036-8.361-24.152-20-28.28V130
			c0-19.733-5.185-38.737-15.045-55.536l27.858-19.897C383.685,57.985,389.61,60,396,60c16.542,0,30-13.458,30-30S412.542,0,396,0
			s-30,13.458-30,30c0,2.879,0.416,5.661,1.177,8.299l-27.851,19.892C318.535,34.116,288.068,20,256,20
			s-62.534,14.115-83.326,38.191l-27.851-19.892C145.584,35.661,146,32.879,146,30c0-16.542-13.458-30-30-30S86,13.458,86,30
			s13.458,30,30,30c6.39,0,12.315-2.015,17.187-5.433l27.858,19.897C151.185,91.263,146,110.266,146,130v17.704
			c-11.391,4.019-20,14.965-20,28.296c0,16.542,13.458,30,30,30h50v20h-56c-0.001,0-0.002,0-0.004,0
			c-9.368-12.479-24.148-20-39.996-20c-11.733,0-22.526,4.073-31.065,10.865C74.79,199.198,58.912,186,40,186
			c-22.056,0-40,17.944-40,40c0,14.441,7.807,27.591,20,34.64v47.08C8.361,311.848,0,322.964,0,336s8.361,24.152,20,28.28v47.578
			L2.929,428.929C1.054,430.804,0,433.348,0,436v20c0,5.523,4.478,10,10,10s10-4.477,10-10v-15.858l10-10l10,10V456
			c0,5.523,4.478,10,10,10s10-4.477,10-10v-20c0-2.652-1.054-5.196-2.929-7.071L40,411.857V364.28c11.639-4.128,20-15.243,20-28.28
			s-8.361-24.152-20-28.28V266c7.37,0,14.276-2.012,20.212-5.504C62.494,285.966,83.946,306,110,306c3.372,0,6.722-0.348,10-1.015
			v45.719c-11.391,4.019-20,14.965-20,28.296c0,13.036,8.361,24.152,20,28.28V432c-22.097,0-40,17.898-40,40
			c0,22.056,17.944,40,40,40h272c22.097,0,40-17.898,40-40c0-22.056-17.944-40-40-40v-24.704c11.391-4.019,20-14.965,20-28.296
			c0-13.036-8.361-24.152-20-28.28v-45.736c3.278,0.668,6.628,1.015,10,1.015c26.054,0,47.506-20.034,49.788-45.504
			C457.724,263.988,464.63,266,472,266v41.72c-11.639,4.128-20,15.243-20,28.28s8.361,24.152,20,28.28v47.578l-17.071,17.071
			C453.054,430.804,452,433.348,452,436v20c0,5.523,4.478,10,10,10c5.522,0,10-4.477,10-10v-15.858l10-10l10,10V456
			c0,5.523,4.478,10,10,10c5.522,0,10-4.477,10-10v-20c0-2.652-1.054-5.196-2.929-7.071L492,411.857V364.28
			C503.639,360.152,512,349.036,512,336z M396,20c5.514,0,10,4.486,10,10s-4.486,10-10,10c-5.514,0-10-4.486-10-10
			S390.486,20,396,20z M116,40c-5.514,0-10-4.486-10-10s4.486-10,10-10s10,4.486,10,10S121.514,40,116,40z M30,346
			c-5.514,0-10-4.486-10-10c0-5.514,4.486-10,10-10s10,4.486,10,10C40,341.514,35.514,346,30,346z M33.332,244.861
			C25.357,242.043,20,234.464,20,226c0-11.028,8.972-20,20-20s20,8.972,20,20C60,239.851,46.234,249.438,33.332,244.861z M166,130
			c0-50.213,40.853-90,90-90c49.166,0,90,39.806,90,90v16H166V130z M156,186c-5.514,0-10-4.486-10-10c0-5.521,4.478-10,10-10h200
			c5.514,0,10,4.486,10,10c0,5.521-4.478,10-10,10C332.124,186,179.779,186,156,186z M286,206v20h-60v-20H286z M140,256
			c0-5.521,4.444-10,10-10h212c5.606,0,10,4.535,10,10v93H140V256z M110,286c-16.542,0-30-13.458-30-30s13.458-30,30-30
			c7.489,0,14.58,2.8,20.003,7.648C123.802,239.201,120,247.236,120,256v28.281C116.806,285.407,113.424,286,110,286z M120,492
			c-11.028,0-20-8.972-20-20c0-11.045,8.954-20,20-20c11.028,0,20,8.972,20,20C140,483.045,131.046,492,120,492z M154.644,492
			c3.488-6.016,5.355-12.864,5.355-20c0-7.283-1.966-14.212-5.381-20.1h66.737C217.867,457.916,216,464.864,216,472
			c0,7.283,1.966,14.112,5.381,20H154.644z M140,432v-23h232v23H140z M256,492c-11.028,0-20-8.972-20-20c0-11.045,8.954-20,20-20
			c11.028,0,20,8.972,20,20C276,483.045,267.046,492,256,492z M290.644,492c3.488-6.016,5.355-12.864,5.355-20
			c0-7.283-1.966-14.212-5.381-20.1h66.737C353.867,457.916,352,464.864,352,472c0,7.283,1.966,14.112,5.381,20H290.644z M412,472
			c0,11.045-8.954,20-20,20c-11.028,0-20-8.972-20-20c0-11.045,8.954-20,20-20C403.028,452,412,460.972,412,472z M382,389H130
			c-5.514,0-10-4.486-10-10c0-5.522,4.479-10,10-10h252c5.514,0,10,4.486,10,10C392,384.522,387.521,389,382,389z M402,286
			c-3.424,0-6.806-0.593-10-1.719V256c0-8.763-3.801-16.797-10.003-22.351C387.419,228.8,394.511,226,402,226
			c16.542,0,30,13.458,30,30S418.542,286,402,286z M452,226c0-11.028,8.972-20,20-20s20,8.972,20,20c0,10.925-8.848,20-20,20
			C460.972,246,452,237.028,452,226z M482,346c-5.514,0-10-4.486-10-10c0-5.514,4.486-10,10-10c5.514,0,10,4.486,10,10
			C492,341.514,487.514,346,482,346z"/>
	</g>
</g>
<g>
</g>
<g>
</g>
<g>
</g>
<g>
</g>
<g>
</g>
<g>
</g>
<g>
</g>
<g>
</g>
<g>
</g>
<g>
</g>
<g>
</g>
<g>
</g>
<g>
</g>
<g>
</g>
<g>
</g>
</svg>
